<mxfile host="65bd71144e">
    <diagram id="p9tJr67BkSwpnKEWnGhc" name="第 1 页">
        <mxGraphModel dx="746" dy="344" grid="0" gridSize="10" guides="1" tooltips="1" connect="1" arrows="1" fold="1" page="1" pageScale="1" pageWidth="827" pageHeight="1169" background="#ffffff" math="0" shadow="0">
            <root>
                <mxCell id="0"/>
                <mxCell id="1" parent="0"/>
                <mxCell id="2" value="函数（程序自身）&lt;br&gt;字符串常量" style="rounded=0;whiteSpace=wrap;html=1;fillColor=#dae8fc;strokeColor=#6c8ebf;fontColor=#000000;" vertex="1" parent="1">
                    <mxGeometry x="90" y="50" width="140" height="60" as="geometry"/>
                </mxCell>
                <mxCell id="3" value="静态变量（函数内的static变量、文件内的static变量、全局变量）" style="rounded=0;whiteSpace=wrap;html=1;fillColor=#dae8fc;strokeColor=#6c8ebf;fontColor=#000000;" vertex="1" parent="1">
                    <mxGeometry x="90" y="110" width="140" height="60" as="geometry"/>
                </mxCell>
                <mxCell id="4" value="利用malloc分配的内存区域" style="rounded=0;whiteSpace=wrap;html=1;fillColor=#dae8fc;strokeColor=#6c8ebf;fontColor=#000000;" vertex="1" parent="1">
                    <mxGeometry x="90" y="170" width="140" height="60" as="geometry"/>
                </mxCell>
                <mxCell id="5" value="自动变量" style="rounded=0;whiteSpace=wrap;html=1;fillColor=#dae8fc;strokeColor=#6c8ebf;fontColor=#000000;" vertex="1" parent="1">
                    <mxGeometry x="90" y="300" width="140" height="60" as="geometry"/>
                </mxCell>
                <mxCell id="6" value="" style="curved=1;endArrow=none;html=1;fontColor=#000000;entryX=0.5;entryY=1;entryDx=0;entryDy=0;exitX=0.5;exitY=0;exitDx=0;exitDy=0;strokeColor=#000000;endFill=0;" edge="1" parent="1" source="5" target="4">
                    <mxGeometry width="50" height="50" relative="1" as="geometry">
                        <mxPoint x="360" y="290" as="sourcePoint"/>
                        <mxPoint x="410" y="240" as="targetPoint"/>
                        <Array as="points">
                            <mxPoint x="120" y="280"/>
                            <mxPoint x="200" y="260"/>
                        </Array>
                    </mxGeometry>
                </mxCell>
                <mxCell id="7" value="离得很远" style="text;html=1;strokeColor=none;fillColor=none;align=center;verticalAlign=middle;whiteSpace=wrap;rounded=0;fontColor=#000000;" vertex="1" parent="1">
                    <mxGeometry x="140" y="250" width="60" height="30" as="geometry"/>
                </mxCell>
                <mxCell id="8" value="015 变量地址位置" style="text;html=1;strokeColor=none;fillColor=none;align=center;verticalAlign=middle;whiteSpace=wrap;rounded=0;fontColor=#000000;" vertex="1" parent="1">
                    <mxGeometry x="66" y="383" width="157" height="30" as="geometry"/>
                </mxCell>
                <mxCell id="9" value="" style="shape=image;verticalLabelPosition=bottom;labelBackgroundColor=default;verticalAlign=top;aspect=fixed;imageAspect=0;image=data:image/png,iVBORw0KGgoAAAANSUhEUgAAAj8AAAGICAYAAACui4FnAAAgAElEQVR4nOy9z2sb6/fn+fp8uwe1O3Wl4GRSVZ3kIl+itoVnggVFaxEYlM2YMWI2GWahpdeG+QO06Y3/A6+99O7ujMGra5jJgJpibNIY2600FiT3qhQSEzllfN3QfGZRVVL9lEqy/Cs6LwjE+vGofj3P837OOc85//j111//iSAIgiAIwpTwL3d9AIIgCIIgCLeJiB9BEARBEKYKET+CIAiCIEwVIn4EQRAEQZgqRPwIgiAIgjBViPgRBEEQBGGqEPEjCIIgCMJUIeJHEARBEISpQsSPIAiCIAhThYgfQRAEQRCmChE/giAIgiBMFSJ+BEEQBEGYKkT8CIIgCIIwVYj4EQRBEARhqhDxIwiCIAjCVPGvcrncf7zxX9FVKv/X/8RT+0/+suLe+x/5+//+jn3jB3L3KMuL/K//27/w13+64L+N9M0sRn2Jf/9vv9L6r//9ho5OeJAM6l/C1KPVylT+5x/8l/98ddeHIlwTrVam8r+/4N//L86/7G32+VKe6v+RST933fNx6VYsP8rrpyjdFsf73isZCmuLFHSgfYndvcTGEQbVWvY2DuluKOWpGArW+86DEnrK8iLVeh7trg9EuHdotTLVNRXlrg9ESMT6o4U9V6SynLnrQxGuibXVYHu9wfZma8gcksWolydwz7MY3thvXWKfOXO1VhvednTev1/865v/iSwLhoJtfvTdrCua7y+orpaZP+1gAQtrZbSczcnm+c0f0l2gq1RWVGzzADPwMGQx6kUU84C93eDKTKuVMWZb7G08LLF0fTIU1paYz3l/25xsHtJsX69VZXmRiqEAHcz1FmMtRnSVymreN9lfo61Ae5M5x4eOVitjzAGnR2xvjT8W9NrxSGgv/Dk7ph+mpf98Df7NyG93x+3jztjhX5RYO43Q+AK0O+ztzFBdWcL4EvP+SExR3xSAc47Nl1TqZezTDjDjPnMdzK1B/SRu3r9f3Lz4Kc2iYXPyIXSh9lts77ccU9rKI042G5g/8cCvvc2jdFtjD6zTgzugnx6xveFOHKU81dUyubiBPS26imFc0z5RylN1Bez27hXeRGDUGWOQdScRWpimjWFc79AePO61tXaOsOaK17IyarUyBkdsr7vPj65SWS1SrfnFiDeJ+ybIUp7qyhIVRhdAjpCxOdlsOEIg9jeD5xsQZyPj9BN2Gmy7fUJZXqSyUsYgpp/stzCLKsZKHm1/XEEwLX1T8GPvHrK96wnUC47XG5jDvpQ0798jblj8ZCi8UeH0KLoycB9WTjtY3Qty78pUc9dQ6l57EcJtply5hNu7zkpUV1mYA2tnMhac4AozdH7u6scODUZhK1JvgvhjJrBa6q8cw6tKBaPuv7793/U6RfA6J1u0BqHVimjdFnv+a73f5uSNyvwbFWV/vGvoiU+z+XRModF/lvvnc0Vz44hcvcjCchtrpPNc4nnTGaiV5acDPhdj/Uu4x73Pe5NqyKKQ7j71J9XjZwnPWWSFnadSz/cPoht6zoYdv65SWQFzvYFFFmMl9WWMxdpqsO1/od3h+DSPMTeLxrkrdHTmczYnm75rsd9i79kjKoaOtjvCONTr375xpGdteUlBD48v/WfJpIgxO85ZnmOuNwKv2LufsIwiWjEL+9GxynF/5Ud+Vj2mpW/2F+SH/HjrtwzGzE8p54lhFsZR+3kSEeujsUTVd03HsWx6bdqnHexTeFEvYwy0Vg6Y9+8RNyt+9Mc8z4H1PvwwZCi8caw9TVQq78DcaHC8vEillh1dZPRWjaGJO3yDvEG722Jv3Xs9Q6Gmomz1P+c9qAETcimPUTofa3WjvH6KQmcyvs/CKyp8ZW/9ENtb3axdjmc2nytSneu4k463clykYB3SbPcH1/hJ8ybI8Mss4PqV+1zRbtrMGzMoMPp5lvLuqryD/TpZaAwk4VlWll86ArHwGGU3/T2wthoTvpY2ypsyxpln8XD6QKV2OZZo11bKzgp//RzCz1m7w956x/ncJFyz7Q576+N+eTy0ogrdFu3A4OyY6kHhRamFlXbCie3f7gQAPH+dodnuTzjK8ivH4rRxDrVrnsgotL/zZxfmR3xWHaanb7rfZn617IiZuD6ANy7St/a5fS5s7XPmk6Bw0mqLMaL4+nhWmnEXn1GyLBgXmOuHWKU81eIZe+st55yWv8e3nTjv3y9uNOA5OeDpiuaG78bn3I6zezjeQO0OZP3fOefYtCH3FF33fc5zPQUG6iuaW0GBtBAWPuCYjccSLxn0ggKnZxOZ7BS++o7/iub7DuTyLJTGaS248rU/fMVGIXdnkc1X/DgDZmcSAmgf8Yse+8YAshgrKrb58XoDjTaDgk3XdxO1WplK4Sumafee4btDQTnzD7puH5h76WwsGJXACt+Z4O76HJ3A+zLVehljpOfdnbi7l70FT2Qi11Uq9SLsHDkLgWfpA0WVJ4qvbfB2Zj5vHnHSBeWJry3XxWPt3MBCQnfH0W9Jk9117uP09U3bPPD1p/C168e09I/9HHOnE+pz7rMWGv+trYcS33ceXPS699/aaiSKqvse6Oxxg+LHfTiaQ7awtzvsXcui4D5csVzwo/eAZXkxx9Dj8VZxnyd24zLkcoMGpNGIHL/l7pQbYbDu0f0aWvnePdaRI+aM5eiEMQ7O6q/D8URjrZydFAvfDti+R8Ho1lFw4WB/uYAxxezQfnvb6CqGu8re3myhrPgFkHM/kgSRY2lJPidleZHq6owTy3Ddfl/KU62/pLsZPzl4C7DJTwwZCu+cwPk/B8RZOM/EOEJl+vqm/SV4XPbuIdu9+DAnpiVyra3L0ALSFY1zxYe/k3m/leKappz37wE35/YqzToR4Tce4OtYP+ZX8iyUOj2314KhwOknXyyMuyr6Mvh4nFXc13t/43q0XfFz18cxKfZbbAPVFZ+vuusFBfvFbAp6q+zDya2ytb4ffi9pAovExMCd7Dyxwi6Kh4uzKPHuvxdP4wbvesGVMRe3FwMRiAfp03PbrV9fxPbdwwnPm9/Fc83fCtKPYwzEHU2an6FvTgjl2SM819h8zPv++2ttNdhbXqRiFKnW3fev7Y66p9zavH99bkj89AOebmOwdx5EJ06h6gVLhgPP2n4LyYCV0Tcb5sb0X98FKUXdg8LbCehDq+VHFKXuSvj0aDIDoXWJjcr8it/H7xARzL6YmDvFdQf8+RNsdenHMrjst9h7tkilXgYcN3XcpoWKoYRceOBfjRv+nUswVn9yxow8RiEsolyrb9MNJHd3I01anGg1R/hE02jcAA+9b04Ix4JG6m3+/efXFarGeLsK7ze3O+9fl5sRP7ca8OT5Xoc9SFd0u6ANCX5zHmp1pIDHwbi/+2Sw6FIi7ycFGIa+9/ppignOcfnRHeGwffhN5Vbagbs0i8akBKRz/LG75XpWlvCuN+cZJNdfbfXxdq4l7wSMxHx5waJnn0KDnetONW/PzOvc8+HXVis65zhwRX7N+zTOYiHt8Q/97bAg8uPtwknYlWIddWDuESd/hIJkkzYnJD1nuLFyhoIdTl7q3+5b0p3g29DuGwd3t1z4WIecA/Q3Z6S1JDgLxRGtNAMZ0DeTjn+cvjng+t9J33QFV04DRrqWVzQ3DmBtiflhc8K1+km6eWeiPJBAZ48bifm5Ob92HM5NDgQVJnzOCw6uBHyv7m4v78/9Nidd0FYWg4GipfyIQZb93203bZibTchdEh+Y6sQp2JHBOYBrOg4E3bkWLq3onWM0EdrIuH7s+bfxPuu+YHRfSEw7MAalPFV310LcqtYbIAK/D671xc2G6vu3Z9o4A2uj77/38AZl/NfPw31+5oq+5yBDYc3ZVXhTZl77WzBwP7KVNQk3j4w/sPYm7pPX5kJCttexj/86pBANTj9XmH/n6/teBvaYYOTE5wzcrfSgrfiyoPeSmrp9c78VeRa31xuYpzjHud6IxFM44pXIxo3e+yMKn97mi+6E3KFD+mbi8Y/RNwde/7vom717vjhkQ0EWI5wB3R1n/HGgk+8nnnVzzA0PY3C78/71uQHLz22vhK9o/t7i+WrcKiKUw2e/xbZ16SQfqwc/E9j9tdHgR62M4ffnnh6xvTXeETorw3yiNcnePWSPRSoB/3F4hXPO51MwQivHaEbXc8zNVuAcrZ2G4yIojHf8/Zwl/uvmOz4vP0rP7djBXD/gl7Ulno/6W7FZWpO3hXur7okEqXsryFw0eBjwxTz43KtjZueNG9x68QO+Nu3dQ8wnvmex22Jv/RML9WL0uP3HhR1xAUz0PoXbNIJxICMdf5xAnws+v+ndOf0t5uRC+YfA5w7vr8D9n0n6rWHPmbXVwKyVA7mwrhvX4Vin1PiNCe6uVAAlxpoUex7eynzcfGMj9s2Bxz8iQ/v5BPtmWnqxPOG4n8DvnmP+PkOlXg4IoPD9GbefKIG+3ArtKDvgZG0pEJd0c7FGt28Bvy7/+PXXX/850RZLeaort5hV0+uQkeRSMRlc75C4XA+CIAi3xfSWyxFunNue9yfAhN1eXsDTZHLapEJz8w5EVuqu2e+eYP3RwkbFeOjbHQVBeHh4btAHVlRZeAjcwbw/Af5VLpf7j5Nr7r9z9p/+5L/851uMYP9Hhn9Xeszsv/4R/N1Snsp/cLa7/3+3eTxJ2Be07P+Bf/8f8vy7f/uV1n/973d9RIIgTAO6SuX/fMF/Mw/4f/8fGXeESXMH8/4EmLzb6y6IzasyaqzA7aAsL1IpfBXTsyAIt0Kvjt+4tQkF4Sfk5xA/giAIgiAIKbnR2l6CIAiCIAj3DRE/giAIgiBMFSJ+BEEQBEGYKkT8CIIgCIIwVYj4mUZ0lUq9nKpch1YrU63nE8tjaLUy1XD6dkG4R2i1MkYte60SL8ryojzngvATIeLnJ2WoKElZg8X+ZmOb7YHJqyRxmnDf0eBaCdjs3UP2mk+piAAShJ+Cm6nqHsbNw2PH1ptRqazOcPyA0mI/FAKipKRSsDqhqseCMB34i0gOpaRSeZNHycW9qUTrhXVt7JwSP74JgnAvuRXxo7x+itJt+QaGDIW1V/D7Ic32JXYXbNwEgE8+STKum8CC56t5fojIFISBaMU89vsGe2mFTClP9c1Xjq0M8LCy3ArCtHIL4ifLgqFgmx+DldPfX1BdLTN/2sECFtbKaDmbk00RPjdGXO2VUp7qiuqrdi0ID5UsxtpLlJwSdU3NRSufQ0wW+FIeY87m5A/nT6cgsc3J5mHPahosUpyh8OyM7Q3pO4LwkLh58VOaRcPm5ENoRbTfYnu/5U6+jzjZbGCKS+b2yOUd8/3pEeapyotAYdgsRr3oCxDtTxzWzgHdZxmauzLYC/eQ3AXH64cBka/Vyrw4CrukshhrM9G4t/0W2+5ryvKiUxZi/bzXjlMVvcE2WYx6GQNHGAmC8LC4YfHjVXs9isaa9CwOHazuBbl3Zao5bzUljEdItMyVqa7gWHX+AGZfUqm7q+Juq1dfTKuF2znHXG8A3gTwkb1dT7xmKKwVqT7pW4q0Ffd3PMSKJNwbMvwya9MdcVDRamUWvh2wveU+965FyDYvXQu200eU5UUq4k4WhAfHzYof/THPc2C9D0+EGQpvHGtPE5XKOzA3GhwvL1KpZWXiHJu+aOmvdjMU1paoruIInvVDbN255uNjc/JH/x7dxwKyguCQIZeDburPOwsIdnwxP7pKZeWR4/rS8lRr9MYoe/cQE1V2OwrCA+NGt7p7gc7RLdVXNDf6PnRyMyg4A4kIn8mi1V7B7w22N1vYZ5cySAtThbL8Eu30K7wrU1nOpPiGs4Doi/ksxmoee8cdr/ZbbB/NBnJfWbuS6kEQHho3KH7cQOfm98EDQ7vDnpiMbwxr61C2twtTSpYF4wJzq0Nzo4HJq4EJO+O+b9Rf0t0MWTb3W2yvn/GiPjgBqCAI95ebc3uVZtHoYO7K1s/7ir6s0t7t3PVhCMKNoNVe0t3sBz/bu4eYT8oYa5fsbVwO/rK7EcPuKmirZeYTP6hi1FXvFwK7wgRBuL/ckPjpBzqLRef+0v4ARr2MQgdza8iHe7vyPt7KsQnC+PTjdsI7SK0/WtirMygkiB9/6of1tpOPLE7Q6F6sortpYFnFFveXIDwYbkb8JAY6C7dNL0/Jztfom+0Oe+ue5SeLVjrHCsVnKU8UlLklqqdHbK+3gAyFmz5oQRgbFaMO5nojfuHV7rC3DpDlReRNN2fPeqv3d1ossaAKwoPiRsSP9jYfyugs3Cq6ysIcKHNl2GmwveW89rzovt/usLcR/s4ML55dYXGFf8u85X1fEB4E10mXcUVT3PSCMBXcgPjJ8mIObHNIoLMwedwaakq3xd56Y+TrrxR0tA8trPY5x5sHmG2ZCISfFH1GCpQKwhQzefEjgc53R8CNFX7vO3/OLlGtD2qgA25sgx0QPk6uoHl/oUd/EOhcKMnhtVbfgnBThJKAdluDPuyiMJ8U8Jzq+4Ig3EcmLH4k0Pn+ckVzo0Hz1r8rCLeEPoPSHZTLyksCmqGwpvNjI02AcsIOLl2l8lbyZgnCQ+Ufv/766z/v+iAEQRAEQRBuixvN8CwIgiAIgnDfEPEjCIIgCMJUIeJHEARBEISpYqLi57fffuPf/Jt/M8kmBUEQBEEQJopYfgRBEARBmCpE/AiCcC20WplqLRv7eqWWlWSCo1LKU60vUtDDb2QorOUp6OnLbsSiq1TqZYzS8I9qtcGV67VameqaKvdYeHDcXFV3QRDuHcryIhVjyFTVbbH3fobKm0v2EnLhaLVFfvmjn//GOjrHS4b5vHnA3m6GF3OAeSW5cEZEefYI2/wYk1voMc9zKrbW6iUjTUKrlTFmW4n3j26L4xTlh+xvNva39sC8bdZ7KegqPDzuXvzoKpXVGY4lI/AN4mZoPjtieyum2KxXybqHZGj+WbF3D9neHfIh73no2uilDs2YSdLa+sSL+iKFzUN+9L6nO8/Y7hXoj536fmkzvXulWfpHGp9c8F7jF3/RDOnR1+Pb0AsXHG9EP6e8fgrmQeqaiQFRUlIpWJ0Hdj0F4ea4I/GTobD2Cn4/pNm+xO6CjbsqffIpfoIWbgZ3orPNNAOz8HPjE8nrw0o3nPP5FH7p/Z3FKJ71+q7y+ik0P6azCHjC5zRBnD8QtNoS87m40j5XNN93mF9ZwvjSSBAvoRIy9f5ixNppYO5nWTAUFJaoGsFvpuq7FjxfzfNDFjWCANyZ+Lmi+f6C6mqZ+dMOFrCwVkbL2Zxsjjn4RVaOY1ovIlaQ+PYS3QfdAabmAUTaG7OdUdGKKtDhOGbwHOYicQZl4q/ZoOPvff6aFqbwPb+la/Yz4txrONlssN0GRc+E6rv10WpljDnn//a3DMeAtlIEcGvHdbBOFZQ5b6K2Odn8CO9ccRC658rrpyjYnPxx/4RP71yHCDNleRFjzuZkM+F53m+x9+wRlZVFClaSRStk7XJLaDh9bBbFPHCsavjeX52J7buxnJ5Fj83riw9ceArCqNyd22u/xfZ+y+18jzjZbGCOa5L1WS+cwcFZRRl1xpxc05rcJ+MeUpYXqRS+srd+6E7cTgHGyhq3M5kn1ENKcpE4E+UFn70VrHcveyQdv1tY8vQI81TtTaBj4d5za6fBnnscWq1MpT4jLrtUZDHqs3z2XatenImuYqzmIcGiYG012Hb/rywvUpkLWx+yGGtgbraw2tC39DrCKp4Lftwnl0zv+TrCmismBvw6OFYZ2zwYOGbYux85KSwx/06lPVK/zmK8ucSMcYWNTS5PpZ4Hty++OPILn1ABWJ+1ydo5oPssQ3NXhJLwsLk78dNbcXSwuhfk3pWpxqwKh9MvptoffK9obhyRqxdZWG5j7V71rRihFU7S65MjWhE9bKaOioxzjk0bzXiKrof99OH24oWaf3Xe4+y65wLeQM/ppwH3yTv+GRRwB/kMhbUi7DTY3getNug3hl2zLIYrdv0uBOuPFvZcvnfPhSj+QFhzZ5ZqPY+53upPxL0YvAYWoCyrKLud+HtdylMpfOXkVOF54RVVQ3GsgcxC0/+wZcjlLvg8lrhxJmIl1Gc8Ad4bL3SVyupT/tw85Mdb37OfYA0MWzUDz5euUlkBc72BRRZjZfARKssv0Yhzd4Xx3F95Fkqd1LE7Wm2WzxutFGIpJFrmylRXcMa2P4DZl1TqimMp9V2XaF/0CsC6Fi0++q6904+rT/rjpbbi/o6HWJGEB8Ddxfy8caw9TVQq78DcaHC8vEillh2t4+iPeZ4D633wO86ABBQeo+x2sHcPMZ+UMeZeUtAP+yvcGxU+oNVCK95SnurKEhXGiLHx3DzdFnvrnb6oqKkoW76/15aYJ/SZtSXm3Wai7ix3FegyKIbAua7juCicyvBpGHrNdFdUfQkdY/s7f3Zh/kkGEPETh7N757vzXOyfYa0UeVFqcQzwRKfy7jIohniKEWdNK+WpurvBlFoe+/0he5ZK5a1K4dsZ5ocZCtq5Y/mJq7YecZUqGL44l/H6pML8atmxAG9d0bNA1i59bXnC2nbGH/cZU5bzFPSW83e7w9562t/MoBeGLQZ87J9hrahoxSzspzm/Gew/WthkMdZmOA4LucB17YsWrVbmxVEDc9853+oqjuBZP8TWnTF3fIL9v+f+FoQHxN3F/GwcOv/VgZwzmVm7hz1zemq0GRRs/vSNPN7q1jTB8FkfrK0DTtY8s/N39HeukIgMss4gOt/7O8kipQYH7JhVprV1GPzefpuTNyrznihLOC3liQJ0Aq4A7a17vIHfuKK51el/qKS7A3ty235L09AtsQE8q8/RYJegKypt8+NY7qeh16ztDPjKswSRMzuDwrnE/gzlnM+nHSDvimHHdRO+brYZ3Orc25iw4QY3Y9O1cETDkUrBOne2Yr927482g8JlsFGfqzRixbkOAQuwE5St+Z+HXv8IWkvt3RbNcX4vYfGVTMwx9QiPO8752G3ne8fNlyEhN5zeQgInfkj6hCA43P1W95FWWcPom8i3t65Qlp+G3r+i+XuL56t5KnVwXEahST8Sv+LFDz0KDJhRV5W7yhwac3LFjzNgdsBplPJukKU/QDHLizmwze8DBzCtqEK3RfsG4icGWn3CwcenR8HgzGsRvmbOBGIYryh8OPSt3l85rrLuhH72pyfDL7Mq88Uj9sxHGHzE5BXV+iAhkkXno2tZAXSVhTkF+whH8Ox3XBFxBU8eo9CBZ4+wm+1bmXito8HCYOL9I2bxNQz7mw1zfpdw752YgGffux++Yq/OonGeWiT2FhKRhImCMN3cvfiZFJoz+dq+ANhY2h1M8ykV1zIxPKi5L5iev87QTNgBA+eYOx2qKyovSi0s7xgiu9BckiboXo6VkEUqydVzawyx+rQ77K33LVBOZtgxc7WkuGbWVgOzVsbwrZRt84iTbpH5M1nhDuSJTqWuOjusvN1dy85b9u4h21+cDMMnm4cxufSuoOAFwHY4MR+hAMpKmcobGyXnCacr2t9m0PUMFBTs9/fBDZnhl1ngoT4f7UtsnvKLjhtIfj30ZZX2bmf4BwXhJ+Thix/rEhuV+RUCPnxwXUfdr5FYg4qhYJ120IxBeTd8uG4WbVgsiRVyxyTkL3FcTTHf11Uq3hbwsBtqmKvnhhk11sfaOsKqF4cIxhhGuGb+XUcOWQwD7OZ9mGjvMd/aHH+7xE5yu+63MItlFl5nYsVPc6PhWney7o7KQzc4ehGDvovM/gLP3+qQ66TKJnzzeBbEB+QWDRzrOZ93PvWFT5w7cQTaH8Col1HoYG4N+XBvV+7HsX9PEO4TD7+2lxvkyumnkIXBdRM1/W4iZ5cQp0eYW21OuqCtJNet6VGaRWO4Sd3LV/Lnh6vA36kEQ8/akRRfdEW3C0rh8cA6OvY3uxdD1T9+PbBzanT6O7xuOkPstXK+lGbREnIWCUGs3Q42GQprZSrL0VpR1lZjaEC+VivCjvesZlkwLoLXfv8Me04Fc3B5hNFxg4zHwOkfT9En5QayLrFRyA0dRPo4i7LxrE9WqiDpPo4FdpFC3PG1O+ytN9heb2GRRYup9aU8UVCMJarFM7bXH1rGbUFI5uGLH3f7KHNFX6E+ZzumFkiv775GB3PrHM+dZaNixBRl7OFZY06PBluIXIuS35Vmf7kAFJ6/9iYXZ7KJbEEfKnx855nLUwkcr7vby/3L/vAVG5UFb0LTVSorj7CvEQcz+g6v/rUeVYikvmYhtFrZXZlKjp/0OFYck1dUDHqiPS3WVoPPxTLVeplqvYgSFjnuomGYYB92jEHRH02DMAr27icsFOZXg4seZ7fXGA26iy+tOGAMCeAsyibmeotrR1dZmHO2oL84ajiixX9j2p3oBgd9hhfPvD6Xxag799X5fkO2rgs/HQ/f7QVOkDJQ9eebCO2KclLPh3au9OJ/ilRrjpslLquxFRNHFM2jY0fcbr2sroY/SVgDsxh04WhvvfiW0O6x8Hnst9i2LqmsFt1Mut7vHvYHsnaHvZ0Zqiv9uAxz/RBqZUJZ8VPiWn0GBInGXTM7nI2WuGvmO1/PzZXymkV+8/SI7XUZoMchVb2vBJzcSk5+nfbrRap1nFih117izgYsL14j+WQ/Z5eXjsE2D9j+ogdzy6TmHHP9wN3E0O9rtnnAXu/5Dif5A+b6fS64tfuKdtNm3kgZiFyaHbCQiNnt1U0uM6I8e4T9zdcpA6kwGqNnmS/oaB9aWO1zjjcPMEdxVwvCA+Mfv/766z8n1dhvv/3GX3/9xd9//z2pJgVBmBgxk3oKYvM++SfamCze4aSEfeH7EAuWDqOfuXywhWRQgWF/vUP3Jd3LgeZfxAUXEOlz7KSxmCVZnke1tklhZOH+I+JHEKaJUhZtP/1W6UiG30TR402QAyY+PYPSvnoYgcYj4lkiB4mRfv20OPGXoVB7THsrTb6tUarEC4IQh4gfQRCECeBYZRIsW75adJINWRDunp8g4FkQBOHusbYOOOn6g8oO7WYAACAASURBVPU9nPqD4Vp0giDcHWL5EQRBEARhqhDLjyAIgiAIU4WIH0EQBEEQpgoRP4IgCIIgTBUifgRBEARBmCpE/AiCcC20WplqTIkYrVamUsteo7TFlFLKO/W4IuU2MhTW8hT0aC22kdBVKvWyrxxQMk5tsOT6h1qtTHVNlXssPDh+jvIWgiCkIq4USYRui733M1TeXEZrQLlotUV++aOfz8Yp+utPvpdxaliZP2dSw5tEefYoUCOwh/6Y5zkVW2vBkAzZWq2MMRtOROmj2+I4xbZ7+5uN/W1wYVrrfZrEjIJwv7h78aOrVFZnOJZ06DfIoLT69BKw9bn/6emdSfzi3h/nfSNVHS/veeja6KUOzZhJ0tr6xIv6IoXNQ370vqc7z9juFeiPUQKFhYfQK+7bO9IHWAYjKfPyKBmZM+iFC443op9TXj+FEXIFBURJSaVgdR7Y9RSEm+OOxI+/js0ldhds3AntySepIHybuBNdbP0mYcrwieT15IKaDud8PoVfen9nMYpnvb6rvH4KzY/pLAKe8BlaG+t+4xRP7sQIviua7zvMryxhfEnK8Byqn+UruupkhXYKDCv0C/56pOq7FjxfzfNDFguCANyZ+Lmi+f6C6mqZ+dMOFrCwVkbL2Zxsjjn4RVaOY1ovIlaQ+PYS3QeRmkfpiLQ3ZjujohVVoMNxzOA5zEXSS9Ufd80Sjj9S2T1hwgt/TsTZzdKvO9Vguw2KnsFOqOrtvzf2twzHgLZSBHArn3ewThWUOW+itjnZ/Ajv4mt/Ka+foiRWOr8rokVgh9XtckpbJIw5+y32nj2isrJIwUqyaIWsXbpK5e2l28dmUcwDx6qG7/3Vmdi+G8vpWfTYvL77wIWnIIzK3bm99lts77fczveIk80G5rgmWZ/1whkcnFWUUWdMt0hak/tk3EPK8iKVwlf21g9dseAMvJU1bkUA0b2M/Y0kF4nncvrsTQTevewRf/xarYzBEdvr7iCrq1RWi1Rr/oE3pkBmKU91ZYkKIoAmRxajPstn3/PbizPRVYzVPCQITmurwbb7f2V5kcpcWJxmMdbA3GxhtaFv6XWEVTwX/Lg3Lhnn+WWnwbb7jCvLi1RWyhjECSDHKmObBwPHDHv3IyeFJebfqbRH6tdZjDeXmDGusLHJ5anU83B6hHmq8uLIL3zCwq9vbbJ2Dug+y9DcFaEkPGzuTvz0VhwdrO4FuXdlqoMqQifi1M3h9Mg3+F7R3DgiVy+ysNzG2r3qWzFCK5yk1ydHyJxN1IoRFRnnHJs2mvEUXQ/76cPtxQu1iIUF4Oy65wLeQM/ppwH3yTv+GRToDfL+SROAdofj0zzG3CwabqXxks58LrSC9lbNho62G34+ggO1WIgG4w+ENXdmqdbzmOut/kTci8FrYAHKsoqy24m/16U8lcJXTk4VnhdeUfWqmjMLTf/DliGXu+DzWOLGub9K6L5GYr50lcrqU/7cPOTHW9+zn2CBDFs1g8/NOeZ6I/B5e/cTllFEK2ZhPzhOKMsv0Yhzd4Xx3F95Fkqd1LE7Wm2WzxutFGIpJFrmylRXcMa2P4DZl1TqimMd910XrRZup3/+yvIiBh991yZDYa1I9Ul/vNRW3N/xECuS8AC4u5ifN461p4lK5R2YGw2Olxep1LKjdRz9Mc9zYL2PG5CAwmOU3Q727iHmkzLG3EsK+mF/hXujwge0WmjFex0rhufa67bYW/cG9AyFmoqy5ft7bYl5Qp9ZW2LebSbqznJXgS6DBIRzXW/ORaEVVei2aAcmSldwofCi1MLyJo3uIxbqKra3QnevbXJcheDs3vnuPBf7Z1grRV6UWhwDPNGpvLsMiiGeYtRnoouSUp6quxtMqeWx3x+yZ6lU3qoUvp1hfpihoJ07lh99BiVsXYy4ShUMX5zLeH1SYX617FiAt67oWSBrlzGWRdsZf9znTFnOU9BbYwQEZ9ALwxYDPvbPsFbUWBEVzwz2Hy1sshhrMxyHhVzguvZFi1Yr8+KogbnvnG91FUfwrB9i686YOz7B/i+V6oWHyN3F/GwcOv/VgZxjIbB2D4OWgTRoMyjY/OkbebzVrWmC4bM+WFsHnKx5Zufv6O9cIREZZJ1BdL73d5JFSg0O2DGrTGvrMPi9/TYnb1TmPVGWcFrKEwXoBFwB2lv3eAO/cUVzq9P/UM9ykty239I0dEtsAM/qczR4knBFpW1+HDIhZPhlFt8A7v59dhmyROSxd46wVooozzKAK8xyCrZ/4PWu7RsVZV+23w7nnM+nHSDvimHHdRO+brYZ3Orc25iw4QY3Y9O1gHaHvSOVgnXubMV+7d4rbQaFy2CjPlfpRHfuBSzATlC2NjuDwrlzXr3+EbSW2rstmoPa1d1x5FtoUZCw+Eom5ph6hMcd53zstvO94+bLkJAbTm/xhRM/JH1CEBzufqt7u8Pe+qQa65vIt7euUJafht6/ovl7i+ereSp1cFxGoUkyEr/ixQ89CgyYUVeVu8qMWyWHjuHHGTA74DRKecdsHwhQzPJiDmzz+8ABLN5yMhkGWn3CAeenR8HgzNj2XjGfSz6n/qTYwCKLsRL+RKcfdwT0ru1c0N0mJJHhl1mV+eIRe+YjDD5i8opqfZAQyaLz0bWsALrKwpyCfYQjePY7roi4giePUejAs0fYzfat3A/raLAwGK9/ZCi8yztB2R9Cz3TM4msY9jc74RmNC3j2vfvhK/aqz0Wcgt7iK5IwURCmm7sXP5NC8ywEDfYGmWDbHUzzKRXXMjHczN0XTM9fZ2gm7ICBc8ydDtUVNeiaiexCc+kmNNPLsRKySHkrzy93Fc8yxOrT7rC33rdAOZlhkwPH/bFWcS62nkVqfTQLjjOxjPCFaeSJTqWuOpO5t7tr2XnL3j1k+4uTYfhk8zAml94VFLwA2A4n5iMUQFkpU3ljo+Q84XRF+9sMup6BgoL9/j7EYcVYFlN8x4uxs3buOO9Q+xKbp/yi4waSXw99WaW92xn+QUH4CXn44se6xEZlfoWADx9c11H3ayTWoGIoWKcdNCNlfEjbGSy1Jz6XS+Kx0HfNJOQvcSb2mO/rKpUVZ+u5GXZDtUNt3zKjxvpYW0dY9WK8YHTvQUTg9Sw3RYzTo55bBUgt/mLvuRDkW5vjb5fYSW7X/RZmsczC60ys+GluNFzrTtbdUXnoBkcvYtB3kdlf4PlbHXKdVNmEbx7P6hrncorHyd3jxMHdSVxL4FjP+bzzqS984tyJI9D+AEa9jEIHc2vIh3u7cj+O/XuCcJ94+LW92t/5swucfgqtylw3UdPvUsliuDktzK02J13QVpLr1vQozaIx3KTu5Sv50zWNj5S/pGchSoovuqLbBaXweGAdHfub3Yuh6h+/HthtNjr9HV7XXvn6LVsxcUbWUYdwQCV41zLs5ooe54s5RlzZTyfWbgebDIW1MpXlaK0oa6sxNCBfqxVhx3tWsywYF8GcM/tn2HMqmIPLI4yOG2Q8Bk7/eIqewg3k7ZgcuIPQusRGITd0EOnjCPTxnlErVZB0H8cCu0gh7vjaHfbWG2yvt7DIosXU+lKeKCjGEtXiGdvrDy3jtiAk8/DFj7t9lLmir1Cfsx1TC6TXd1+jg7l1jufOslExYooy9vCsMadHg1d+rjXD70qzv1wACs9fe5OLM9lEtqAPFT6+88zlqQSO193t5f5lf/iKjcqCN6HpKpWVR9hJbrYUjL7Dq3+tA5PhEOEDOEHLXYX5d75iiZ61bmdwQKxW899fYTiOFcfkFRWDnmhPi7XV4HOxTLVeplovooRFjrtoGCbYhx1jUPRHU0eMgr37CQuF+dXgosfZ7dX/O5Xwgd7iSysOGEMCTFigx7WjqyzMOVvQXxw1HNHivzHtTrT/6TO8eOaNU1mMunNfne83ZOu68NPx8N1e4AQpA1V/vonQBNs3X/sG6F78Tz/RXlxWYysmjiiaR8eOuN36+Wn8ScIamMWg20t768UEhXaPhc9jv8W2dekkBqz7f/ewP5C1O+ztzFBd6cdlmOuHUCsTyoqfEtfqMyBINO6a2eFstF4+JugnWPPTcw1e0dw4gLWlwGfC22ntD1+xjXx0t92IMUJCynpfCVh/tLDnnPw67deLVOs4sUKvvcSdDVheTLERIIl+zi7vebDNA7a/6MHcMqk5x1w/cDcx9J8d2zxgzxdovOD2bcWIlpMIPotXtJs280bKQOTS7ICFRMxur25ymRHl2SPsb75OGUiF0Rg9y3xBR/vQwmqfc7x5gJkY3ygID59//Prrr/+cVGO//fYbf/31F3///fekmhQEYWJESzakIdb64Z9oA1aE+KSE/cXCQyxYOgz3ug7NTTSowLC/3qH7ku7lQAtlSfctutLn2EljMUuyPI9qbbv/hZEFQcSPIEwTpSzafvqt0pEMv4miJ6YsSRg9g9K++iktc571c1j9L6d+Wpz4y1CoPaa9lcZyOUqVeEEQ4hDxIwiCMAEcq0yCZcuNd5NsyIJwP/gJAp4FQRDuHmvrgJOuf4ODhxPvdmfb5QVBiCCWH0EQBEEQpgqx/AiCIAiCMFWI+BEEQRAEYaoQ8SMIgiAIwlQh4kcQBEEQhKni58jwLAjC+JTyVJ61x8oZo9XysBWf10erlTEYlvgvDjdnEAPKoCR9L5QrR1l2M0277SjLKspuZ0ieoyzG2kuUnDKkLIck8xOEh4qIH0GYdvZbmMuLVGufRhMqusrCnIpSO4v5XpYXczYnm+PWhLI5+X3UUiVXNP+ASn2RP325dvrFjbMsGHm0J5fDzzN3wbFbrT4WXaXy9lKEjyA8UO5e/OgqldUZjmUFdYMMSqtPv+BoD1nRThv2h6/Y72ZQOE8tOJTXTx3LyNwsmj7DwqpTo842DzB5iYaCtroIm5/IrbplNRIzQ8f8QLjOFfhqwCXg1et7m6UZ+FyGwtpLupsNzFSlNWLq7MUciyAID5M7Ej/+OjaX2F1ck/QilScjrj6F6+EKn6HVq4WfhMH1vcIFZ+2ujZJTos+HrmIUvrK3fohNFmNtBrNXTDOLsea9l6GwpvN5vYGZeEzhrMgxda6812ILgsYV1/UX//UVJ+0JKhu7q6CM7FoTBOFn4I7EzxXN9xdUV8vMnzr+94W1MlruGmZyr+ZQ74UxrRcRK0h8e3GVzIGYlW06Iu2N2c6oaEUV6HAcI3wSz9ElPlV/f3IdWBCz90LyfRpWxPGurtmDpjSLYh6wnVLoOrW9wvcxi+Faa51rfc5x8yWVmuNO0mov6f5+6L53RfM9VGvZG1zUZNALF5iD3FQRshj1WY7Xk56XIeOHrlLQZJEmCA+Vu3N77bfY3m+5YuMRJ6nN0TH4rBfOoO6Y0o06Y7pv0laenox7qBeUuX7YXznXi1TWuJ3JvHsZ+xv27iHbu9HXHdFxweeYVP1abUDV8LT3yRNIp0dsrw9Y6d/lNXuI6CqVFRV75wyjvpR4n6ydI1gponVtrObHiIDVarN8DtyvDOwesg1QyvPi6LDfl0sqBavF9sCyDgrzcS6uyGs2JzHf1mpucHTv70UWZhWU2CrkTp+1l2dC5xAW5aANc3uRZ37Fd2w/XbV6Qfh5uTvx41lYTjtY3Qty78pUB1WETsSpm8PpkW+QvqK5cUSuXmRhuY21e9W3EoRiBpJenxzRmIawRSQqMs45Nm004ym63gkNqOH24gfdsNUEgLPrngs4QaMKnH6K3iddZWGuP3kGbUbp7hNkKLxzhc+A+zHaNRMAaHfYW+84/99vJHzIfb66LfZ+/w7tqIXI2moFP//OtzNrvxV0b1nwfDXPj4H9OqXbq/aYdsx9tbYajvDqoWC/b7AXFlylPNXimXMcuyGB7L82giD89NxdzM8bx9rTRKXyDsyNBsfLi1RGNY/rj3meA+t98DvK8ktnZVt4jLLbwd49xHxSxph7SUF3B1VdxbhR4QNa7RX83mC7txLOU11ZohJxJaTAW512W+z1zPUZCjUVZcv3t7dNeD38mkPUnZUPxHoMiv9xrqvNSST2oi9a9vbBWAm9nfY+lXTmczYnv4tL4dbRVSqrT/lz0/e8DkFZfsX82RF7315G4oX89IOHw0LniubGYYpfuqK5dUviRFepvHsKvq3uThD3q4gbWKq0C8LD5O5ifrwBTwdyMyiA5ZnOR0GbQcHmT9+yUquVMWZbmCYYhtO2jVt1eW2J+Xcq7Y3v6O9cIRERPmEzfJJFKrQjJCbmxNoKxSHstzl5ozLvTfYJp6U8UYAOP3yTkPbWPd7Ab4QmBU88bCa37beaeNcqnavIs/ocRSwryvIr5nMdzI1zIBv9asr7xLNHwAU/tDzV1cHXNkzcNRPS4bkyR4qb0VUM4wJz/RybeBeptyU82scctFqZhVknqDpCnCuMdIJDWylTXYkRLadpzZ9fMXsuVS/26SPb696iwIkZinP9CoJw/7n7re7tDnvrk2rMiftQzAO2t65Qlp+G3r+i+XuL56t5KnVwVqGhCdWLRerhxaU8CqxYo24XN+akPjPEdXfFjzNgdsBplPKOy+r0zNdOlhdzYJvfBwoArahCtxXrHrguyVYfRxTZ5seUE2fyfXIEjIJRPGJ7vRX4/MB4nthrJvQZvMvLQRmwvTu8AMhiuDEyL0otrH0cMfT6O+aoFs3mx1AAdpzbC9ciA8cpBIcnkAKipaRSsFJaFHP5GEuWb9cYAB0+p2tNEIR7xt2Ln0mhOS4heyfG1+/HywPiTtbDY0P6gun56wzNmBgIh3PMnQ7VFbU/GUBsICUA3YRmvFiosEVKdy1YX+5qO3qy1UerFdG6rXRuvFT3qYMZsBR41zYhnifpmgk+zjHXk+J8+iIhnSvWtXqsH4Hf+tHucPx6kcpy2nYmS8CdO+dYfhz8oiXvWJOGWRJD70evj3MNBEF4mDx88WNdYqMyv4ITQ+SbGJUnCnS/Bge4Up6KoWCddtCMJYwvKXz2bWc3lPYkAwwY1C3nc8oz93P+XUu+Sdlx98R8392NAx3M8MDcDrV9yyRafUp5jLnBbjYg/X36ZkM4UHsQg66ZcAN4wqeFRZYXoXftD19h9RWFD+l3PilG2KLiEuf26rZiPuj7/VC8Wpyoc14bbEEVy48g/Nw8fPHT/s6fXZg/+xQabOPcRFmMFWfHkbl1RWFNZX4lj7Y/ZIdZaRYNsI4GWxWcjLc2Jx+ugn8nJGYL0LMQJcUXXdHtgjYkVsj+ZsNcP87JOX7d2R029m6vAVafouMmid2q7E5qzoSU8j59uQAe8YsOll8gebFAYTfIwGsmTJ5zzIT0A4DbH8Pu5sFEA+wHu70S2/lyAc9G+unUxxQVURkU/UrEtiA8UB6++OGK5vsO8ytFjJJnxclQWAu7YtzXfC4Vz51lxNYmcvEsC6dHgy1ErkXJNg/6cUFfLgDV5y7zbVP3u71STeLeeeZ7yeR65+Ur5mh/+Ipt5Ptbx3WVysoj7C5DijQmkxzrE7fNGPwxPf4JJNV92m9z8sYLSndFnrsrLxBTJMLnnpJ295aDtdVIf+/aHfY2xjqo9PiSnEatUXEWKsnvIwgPkZ9A/OAEKQPVFZ+fP+Sz12qO6LDNdn+w7cX/FKnWHNdUXFZjKyY+JZpHx464c9hvsffsERWfWd/aaWAWg24v7a0XExRTT8h/Hvsttq1LKqv+1P3O4NtbgbY77O3MUF3xfrODuX4ItTJxnoXhuFafSQRRp7hPzuR5AGtLAbdDeIdP6msmTA2OdTAZf5+1dhJcx5END27bI8VECYJw3/nHr7/++s9JNfbbb7/x119/8ffff0+qSUEQbopQKZfR67v543/8hBJxjpxHK8HtNQRFz2CHNiTEBSoXlq9oRs5zQIHVVIgFUhAeEj+H5UcQhNHxrBxuLM3IW9QTuaK50aBJFqP+km6amLcJEBY+8ZzTjMtH1DtmQRCmAbH8CIIgCIIwVfzLXR+AIAiCIAjCbSLiRxAEQRCEqULEjyAIgiAIU4WIH0EQBEEQpgoRP4IgCIIgTBUifgRBEARBmCpE/AiCIAiCMFWI+BEEQRAEYaoQ8SMIgiAIwlQh4kcQBEEQhKlCxI8gCIIgCFOFiB9BEARBEKYKET+CIAiCIEwVIn4EQRAEQZgqRPwIgiAIgjBViPgRBEEQBGGqEPEjCIIgCMJUIeJHEARBEISpQsSPIAiCIAhThYgfQRAEQRCmChE/giAIgiBMFSJ+BEEQBEGYKkT8CIIgCIIwVYj4EQRBEARhqhDxIwiCIAjCVCHiRxAEQRCEqULEjyAIgiAIU4WIH0EQBEEQpgoRP4IgCIIgTBX/+q4PQBCEh0wWoz7L5/UWVuD1DIW1JebPjtjeOh+5Va1W5gVHfN46D7UrRCjlqRbPxrjOWYy1lyg5BWXg5zqYkfsrCA8bET+CMO3oKpW3l+yNIVIozaKhoiy3sXavQm/anPwxRpsuGmCO/e0pYr+FWSxTXWuxt9HBDr2t6BnsdvjeuOQuOF4/TBY27rMhwkf42bh78aOrVFZnOJaVxQ0yZBVeylNdUX0vyEpvqmh3ML8tUq19Gtl6oBVVbPOAvd0rty/nsXcamPvXPyz7W8KE/QDRamWMOfrXamTcPpwLvXx6xPbRLMYcQJ6FUofPxbL7t5+kPq1i1NXIq+HfEISfjTsSPxkKa6/g90Oa7UvsLtiAsrxI5cnoA7BwDVzhM/6gLPwM2F8u4Mmo38ryYq7D8Zb73GgzKKdH7E1A+NwUyvIiFeNiMuJ+wmJvMFc0Nxo0wy97Lq/1FuC6C48abG/d9PEIwsPmjsTPFc33F1RXy8yfdrCAhbUyWs7mZHNM4eMORH3f9ZjWi4gVJL49ZxCN8ZR3403Pw4i0N2Y7o6IVVaDDcYzwSTxHFysy6Gcx6kW03t8x9yD1feqvdIcLs/7viohLJnw/bbOFbeR990ulWneuocmroc+jsvwSxfzYu3daUYU5p40eq2XmfX/GPjNJcSdzS1SN6HlE27j/WFsNtifYnrKcR//QioohADIUljM0d9OMpUPGSV2loMliVPj5uDu3136L7f2WKzYecbLZwGyP2ZbPerG9e4U3cRp1xlzh2ZxsHtIcejyTcQ8py4tUCl/ZWz90JxdnMq+scSsCiO5l7G/Yu4ds70Zf91bPn/fDrylYOw22kyamlPfJaQtOdlrYK/mhh6/V/IJLSCJ8P5VlFWW9EYmrUZYXMfjI9vpgwblgKCi8ovDhkGY7wy+z/v7gt+4OObCYuBPPghEVSjMcPzDhM3myLBgqWuGS9vu4969oftGp1otRoRhZfIA2zO1FnvkV7/9px0ZBuN/cnfjxLCynHazuBbl3Zaq5ccREhsIbFU6PfCv+K5obR+TqRRbcQMzeqvc0GPeS9PrkiPrqw9aJqMg459i00Yyn6HonNNCE24sfjLwYgwBn1z0X8CY9Tj/175OuYrjCJ3lFnu4+Ucq7QrCDras8H3Y4usrCHFg7R7BSHLJrRfBjfwC9BFbgnmXQCwr2+8HWM2X5JZx2gDPn2dMfk2u2EywRo5Lhl1mb7kgDQdjq6O8X4feUUJxLeNwZ3GfDfUtZKVNd6f/t7wfhzw7sI2Grc8KYpNWKKN4CopSwOHAXl1qtTHXFd37tDnvrnYQDEITp4e5ift441p4mKpV3YG40OF5epFLLjiZC9Mc8z4H1PvgdZfmlM9gVHqPsdrB3DzGflDHmXlLQ3UHRnbRvTviAVnsFvzfY9sRJKU91ZYkKY7hnvFVbt+WIAwAyFGoqypbv77Ul5gl9Zm2p536IurPyVOr9QXSQ68i5rsFdPNpb55gGuiLS3qf9VrLlKEKGwrt8L87EWBn+DcFH+zu8zgL+e5Ihl+sErHpRsiw8+YR5NEu16LyivSbWdToeGXI56Kb+vCtuAv04i7Gmomx0sDnHXG8A6WJ+hvXZngsrRcxP+LNJeCIpII5KeYzSeaBtZXmRhW/pxw5rq4FZK2PUYrbC6yqVd0/B53KMdXnyMF2NgjCIu4v52Th0/qsDuRkUwNo9HN0vrs2gYPOnbyTTamWM2RamCYbhtG0D1tYBJ2tLzL9TaW98R3/nComI8FGYD8QqpNwpERMXYW2FtpHutzl5ozLvTfYJp6U8UYAOP3wWHU9kBH/jiuaWbyVX0pnP2ZxsJrfttzR51yqde82z+hz5LE0ZfpkFzi5RamUqvlVuQESNcJ/Soiy/Yj7Xwdw4B7IjfFNwuOLHEx0NXy6d0iza6dnALeZabZbPWy0ozbqvZLA/TM49qyy/RDv9SvddmUozxUSvu+PHkb8fn7vPxeiM22fHpme9DAmM/VbgPnjuSJNXVOtObzkxL2CuGIyzmstTePaIeQPH+jUw3ugrZs/dHufydPM4ifARfjLufqt7u8Pe+qQac1aAinnA9tYVyvLT0PtXNH9v8Xw1T6UOjmk8NJh5sUg9vLiURwH3UtRV5cbp1GeGuO6u+HEGzCZ+wFnxzQGnZ752sryYA9v8PnDw1YoqdFu0b8AnH2f18Vbp5Iq82PHtMhlo4Rp2n9LgCDHbF3ArjI71xyXGcsbN0eO4Jq33reQvlPK8OGqFxFGGhdWl+LirUMDz8Di5LAvGBeZ6B4sO7eVFqvUhu7PaTsyatlLG4CYsFCn67DVQXj9FoTM4lklXWeCj25e8sccJbPZ2evXJYtSd2Lrh8VZBq69DONC8w+dUZyIID4e7Fz+TQuuboAdutW13MM2nVNyJc3jgXl8wPX+doZmULIxzzJ0O1RWVF6VWP44iJsAQSLbpe37/sEXKXd3aX+5qJ1Oc1cfH6VF01VpUMcKr5bT3aQharYjWbcnOruvS/k73nY6228Iq6Y67dNB92Q8LH8DnVuozQsCzD632ku5m3/LSc1evXbK3cZnwrXPM9QPHtduLv7lGYO6offaaKE8U6H4dbFFqd2I2hDiBzZXlK18/yFBYc12AafpGyJLsWX767TmWH0H42Xj44se6xEZlfgUnhsg3QMQOtg25ewAAIABJREFUKqW8syvptINmLGF8SbFS9FaWTzLAgAHFcj6nPHM/5w2ioZgix90T831dpbLibD03w26odqjtWybe6gNwRbfL8N1Wo96nQZTyGHODXXtCWq5o/n5Jpabyy+wjTn5v3dE1dayB7ER3fVp/tLBXZ1BIEj8QyIPj9rv51UUYVQCN2mcngP3NhrnR3b4A7Lc4rpUxSs44ptVGLCkilh9hSnn44qf9nT+7MH/2KTTIxbmJshgrzo4jc+uKwprK/EoebX/IDrPSLBrhmIIojvna5uTDVfDvNCn+e6vNJLeAKzKGxB3EDqQl3dm5MvZur0FWH88lMIPCue+4+rFANox4nwbj5CYiFJflYjgDt+T7GYF2h2PKGGdH/SDfW0V10x004vthzzWe5UWa5tod9jahsponpwG+c7K/XACP+EUHK+ZcR+qzE1qQOMcUshiPgLV1xIu6a/EacfNGuJ9ELT8ZFP1KFhnCT8fDFz9c0XzfYX6l2Fv99Ey/AbeI+xodTHdw8NxZsTshPDxrTNitE8a1KPn97N6g1neX+bbQ+k3oQ4WP/zzzVGqXvuPNUKg9pu3u9rI/fMU28v2t47pKZeURdpext4EnW30cnJV5HmP5e+96O8HINie/e99Je5+GE58wrh9HJKJnFJxn8nnzAPPJUmJ9qJvlmvmySnkqz9rBSdwVMX+GG/UskG+zNGP6fOo+C/QWJIbrNhz3+L2A6pVFCpbPUlXKYzBkF6X/OHLDF2g9fNvqo4kk45JLSn4f4efiH7/++us/J9XYb7/9xl9//cXff/89qSbTE86REfJlJ9XWCef5ictqHLfNM5pHJ35wCLdn7TSc2ju+HVaxOXkSziMajxDzu4Fr4Uws1MoYRFeFw3d7uduIh2WcTpu5ech9Soy3SDrX0HGK+BmBXoLR4ITbizkbJoIGVhNPG/OTVBU+Bt1LixFTvDPSbwcIqiG17NL02eDxB5Ns9seL6HuDji8yDqSx4vjL03x4nGIRNZio5UcQfk5+HvEjCEI6eglGkyfXqCCPmVBLeapvLhNE0qTET0hA3FLZl/uNzxoVcw+jZUwOOH6iw1YLK6lAamqk6LHwc/ATuL0EQRiOT0ScHsVsjw7Scy3GuJT82M30sVqx6DMoCeVVHLydZBkKazo/plb4+EWLzclmIzE+q5+Gw/2OscSLHa+MSUKBVEGYMsTyIwiCIAjCVPEvd30AgiAIgiAIt4mIH0EQBEEQpgoRP4IgCIIgTBUifgRBEARBmCpE/AiCIAiCMFWI+BEEQRAEYaqQPD+CIAg+tNoiL7594nj3fLScQnEZswEvRxG/t92SGUKEgdnCB5HFWHuJklOGlO+R5IxCEBE/giAIARQURi/mqTx7hG1+jGa01h/zPKdia61AkVXBx34Ls1hOrC2n6BnsJOGYu+B4/TBZ2OgqlbeXInyEAHcvfnSVyuoMx6LKbxA30+tZQjmDIbWOhJ+QNDXi7j39oqzBDNRJr6fH/jLq9zLohQuON6LfU14/BfMgRYHSe84odd9iSSitcXrE9tGsW04lz0Kp49RSi9Q7TBqXVIy6Gnk1/BuC4OeOxI+/7s8ldhds3Jo0Tz6NYfoUxsZfGFGKGU4HnvBJUzjzHqPVlpjPdTAjz+0Vzfcd5leWML5EixJPltCE7puEnQKnWRYMBSWmUvr4fW6yRXyHFzeeFAmlNTyXl1tyRauVeXHUYHvrRg9GmHLuSPxc0Xx/QXW1zPxpBwtYWCuj5WxONsccjNNWFR9GxAoS315c9Xdg7FVRpL1bKuCoFVWgw3HMIJp4ji7RavfhKtYx9yD1fepPKomTREwFeBFxw1FeP0XB5uSP+yd8egVVhwgzZXkRY87mZDOhj++32Hv2iMrKIgUr3qKl1coszNoouZhnfK5MdSWm3dh+GbKauW4Wcx8ozaKYB2z7n0nP2v3QntP9Ftv7g2vCjYKynEf/0EqoM5ahsJyhuZvmGR0y1usqBe3+PevC3XJ3bi+vI/WCBBuY45rcfdYLZ5BxJk6jzpjum7QugMm4h5TlRSqFr+ytH7qDqiMiKmvcTgXrhMKS/QKJQRxRdMHn/fBrCtZOg+2klXbK++S0BSc7LeyV/MC2rJ0Ge/v+15aoIAJoOBf8uE8urt79PMKa8wvoOBxrim0eDOyj9u5HTgpLzL9Tacf0I/ubDd8+BoUJfctD2GKkLC+y8GWU/pjFeHOJGeMKE7IsGCpa4ZL2+7j3r2h+0anWi9FFVsyiRxvm9iLPfE/MPkQXrzBp7k78eBaW0w5W94LcuzLV3DhiIkPhjQqnR74J74rmxhG5epGF5TbW7lXfihFaUSa9Pjmifu6wdSIqMs45Nm004ym63onZOeJvL74j91bQfs6uey7gTTycfurfJ13FcIVPsosh3X2ilHeFYAdbV3me0JpWdGIPjv2/t9/m5I3K/JMMIBPOeMS7VDzB2+ufukpl9Sl/bh7y463vWUuwWIatiIE+oKtUVsBcb2CRxYizuATaeolGnLsrjOf+cuJIbjvmRqvN8nmjNdLiJdxv/dcpYok1gq608LgSGQP8Y1xEQOSp1H0LDf99DFvDB46VacenYt8iVkpY4LgLZK1WprrimxvaHfbWOwm/LwjpuLuYnzeOtaeJSuUdmBsNjpcXqdSyo4kQ/THPc2C9D37HGSCBwmOU3Q727iHmkzLG3EsKutsZ3Un75oQPaLVX8HuDba/zX8c64Q1Y3ZYjDgDIUKipKFu+v9eWmCf0mbUl5t1mou6s4MA3yHXkXNegy0R76xzTwMkl7X3abyVbjsLkZlDAN7lkyOXAborwiRBx5yrBINGx+oDC/GrZseRtXdGzWNYufW15k6Ht9He3HyjLeQp6y/m73WFvPe1vZtALIfE9iP0zrBUVrZiF/dt0fcxg/9HCJouxNsNxWBDGWFsdsRJcAGq1xd541V8kDY/5UZYXg3EzukpltUi15t5nn4AYGvPTc3cFx5EIqcYn14L2Lf34Z201MGtljFrMVnhdpfLuKfi2utvmASavIi77wYszYdq4u5ifjUPnvzq9SczaPWR71Ka0GRRs/vSNhF5nNk0wjP4EaW0dcLLmmcG/o79zO2pk0HcG9X4nT7nLIGbVa22FtmB61glvsk84LeWJAnQCrglPZAR/44rmlm8VVNLdiSa5bb+labRgR8/qc+RbyWX4ZRY4u0SplakkrFpHuU9psLaOsOpFjLqXV8WNN+q2xOUVhy9eI2LFuQ4BS945n09Bm51Bwc2R03seg6t/ezcp1mMICSI6mZhjmjjh8QI4PcJuO79/3HwZEoRxuP3o9CxwTyLjR0rs3UNM/wvtDseneYy5WTTOb2QnZ5rxSVlexOAjJq+o1p0ef2JewFyRat3X2FyewrNHzBs4z85WY8Dc8BWzFzLQ/43tde+5zGLUZwNuekG4+63uI636htFfEW1vXaEsPw29f0Xz9xbPV/NU6uCYZEOTfiSoz4tLCSYvi7qq3FVvfWbIpHLFjzNgdsBplPJu0Kd/IMzyYg5s8/vAAdxzB7VvwJ8dZ/XxrC3kirzY8a00B1q4ht2nNJxjrjccAeVNPA9899JDxDoafL0n/jzGiOhh2N9smIsX14oR3YUFJAY8WzuxvxAT8Ox798NX7NVhosMdF+Z81pkJ41yHiTfrkmJ80lUW+OiOB9746QQ2ezu9/O0ZdXVoXBcAuZDLDiCyu67D57SnIkwFdy9+JoXmmFxtfwBsHO0OpvmUiqHEJySL0BdMz19nBmRoPcfc6VBdUXlRamF5xxATnAdAN6EZfy4N/wCou4P3yPlHJkWc1cfH6VHQpLzfwiyqGGELV9r7lOJ4nJ1lrlXOM+vXJZjx/tC3Ct540P6YxLl4BwU8G8/GiCdrX2LzlF90sAY8l9ZWg73lRSpG3wpy3e3w0cDxizHaSkGa8andidnU4gQ2V5avfOeZobBWRDs9igSjxxKyNnmWn357juVHEPw8fPFjXWKjMr9CIKYAXNdR92tw4C3lnV1Jpx00I2UekLYzeGvDAmkt53OKN0Am5FNx3D0x39dVKivO1nMz7IZqh9q+ZeKtPgBXdLsM2Z3D6PdpIO7gSDgI8hKjXkzc3SPcNp6V8yZdTuNj7x6yd1OfD5zzOZ93PvWFjzaDwmXib/QsImtLzBvjxAf6XMAhUVCJs3JNguuMT/stjmtljJIzFmu1AQlZ4xDLjzAGD1/8tL/zZxfmzz6FVvtxZtgsxoqz48jcuqKwpjK/kkfbHxL7UJpFY7iJv5c/5cNV8O80+VR6FqKk+CJXZAyJFYo18Zd0Z/fF2Lu9Bll9kia40Kp/pPs0DNfVFgkada9RJBBauB5ukPEYVgPneYzbtTgmrojOaaQuFTG6uJ481sjB1lc0Nw5gbSlm96L7nCctxrzx6n26BcAgt+Aox5tmfErC2jriRd11NY7ovg5bx6KWnwyKPnq5EuHn5ieo6u5sZ2WuiFHyXnMtA92Wbzusz1qwdY7nzrJRMWrZ5OY9a0zYrRPGtSj5XWn2lwtA4fnrjO8YYragDxU+vvPM5akEjtfdTeH+ZX/4io3KwnLGd/yPsJPcbClItvo4WH+0sHN5DO83AWX5lRPo2vtO2vuUBieIlVyehZLvZU/khYJGhVFwJjGl8Nh9phJKEqTE3v2EhcL8aj5gHXR2e43RoCuiteKAPhvAEdf3zvUWOZ4sxpoadI+7wd32t2gGayc+6GX8NXQt0P5rpNXKiQlLnXHKN2aMRbrxadD3u+4YNWyR2aOUp7qaRzOWqNbLvX8VQ3FiuXqvLVFZLVOtL473zAk/Jf/49ddf/zmpxn777Tf++usv/v7770k1mZ7wVt6QydfLeRG3SvDn+YnLahy3RTKaRyc+1iTcnrXTcOrW+HZYxebkSTiPVDWZAtfCEVTUyhhEV1TDd3vFm9AjpM3cPOQ+JcZIxZxr3HWTDM/DGb7bKxgvYpsH7H3Rqa4QyvPjxG75+0b88zQs11VSfIpDuP+NtFstsdJ6MkkxP/EkiMMB/SVqmXCJefaTt2cPuaahftbf/h1/3QZlmB80Pg1PQJgiBs9fYufD4xQLwcEkXl9B8PHziB9BEKYEVywNdY8MKeibwOjix6tT6L6ke7nLoosvD8k54xNvMfcxLinm8RMdtlpY17RGSuFmAUT8CILwAPGXU0kSEb0yKSPt/osRM8M+X3tMeytNnMv1q80/bPyiJe2uzP53RDAKk0TEjyAIDxLHmpIwifpqv8mEKQhCmJ8g4FkQhGnE2jrgpOvfUODh1JGzzQMRPoIgxCKWH0EQBEEQpgqx/AiCIAiCMFWI+BEEQRAEYaoQ8SMIgiAIwlQh4kcQBEEQhKni4df2EgThmjhVr7ubbZrte5B/ppSnWjwbKTGhQxZj7SVKThlSTkGS3AnCtCPiRxCmHGX5JdrpBd3XpC4W6nwvWgommREEx34Ls1imuhZfIkLRM9hJIi13wfH6YfLv6CqVt5cifARhyrl78aOrVFZnOJaV2A0yJM1/uN6WrIynB13FcOs92ct5CnprpOrrqWqpuZac4POUUKLg9Ijto1m3FESehVLHqYUXqS2V9IyqGHU18mr4NwRBmG7uSPz4U8hfYnfBxl1JPvk0hrlbGBt/UcGpTLk/zWT+//bu37Vt7f0D+Pvz4QsmRNcuaagk2l6cS01iAiUGgYcu7mQw3rJ5zOz/IHP+g8wZs3UzgUzN0iEgSCgEJ7hgQ9trqTThOlXI9fT5DpJs/TiyZDeJm+r9mlrHlmVbOnrOc55zhMLmMr7uOZmSwz7QXEch4a0drG83wLNZ33uIzu4xOsGH3SGvnR6A8X22Wvuzvg8RUdicgp8hOh9uUN8qY7VrwgCw1ixDyVm42Jsx8El6V/E4oSyIeHuRKf+4u59HmHRX5fukFGUAJs4FgU/csEb41gHBu3MLfoPEv9M4M8DA7H4oDec+U6NAZ4jO7icUmmVoH5LdFkLSNlDXErxZ92rydqp5qB974WAIAJBBoZpB5zBJ2xBz3qsyCgo7V0RpN79hr5MeWic9J9hYxMXeMfQp0u0+nuxF63AI98KpbWPG4ZukN927m+EhqbqOSuE7jnbOnGDHDiIqTTxIAITBrfA9rMMztA7Dj9tB0Q2+nAQfs2802Yq6aCb8nUY3pDzowarlf+6zkZBUXcfapSioHKKze4pCs4x6Lf74TjbsJaNgTAo4sljTZCiFW/Q/iP4+ROebivp2MRxwh4JpQIkb9kIeq7XRJ5jyxqdE9DuYX/DjZli6JozBDXKbZdRzswQT9n180G17GuEhOrtt5LaLWKv2YRwOx1mMrr/uJerxuxOubQheMMJBxjXOdQuKtgxVNQMNc3B74sbbvuljYFcmd74TymJNk4Du5/HvpMrQYu6wnfR3QinvBIImLFXG87jdCWbq7u13/F14j59x1sbST6HjVSDT562fCR9n0rPFZG95YkZkdGxKowjJDYhLEcGu01lSGoGgrG/iaMdMth9ERI751fy8sbM9HciobAL67jHOq+uoNLLTXbzUJ3ieA4wP/tdI1Zf28EvhCaRDE9bhGfSnZWgrL1FQnUbcuWjf5wVTabwC3h2j5V40SnnUaxuoYIahHLeXO+jZwQEAIINCQ4a07/l/cwOrCDynuYFVZzPh4aw8Ktvji86k3rz9vVq4eD/+vpS39j5NHCZJ+jud9KIzRwFugOcLukp5aKVr3tBSxJNlbQWCZam6Dg2f0NoJ/+5KIw/sizsliYe9AAgDqMgMlJixfwy9UYbWEEyFV2VUNpcBz1R3cVAnGrIlojSZX83P7pn9TxVAbgESAOPwDK1pN6UsQIKFr56WWWmUoS31oOuAptnbtuDcBbq5gdVNGf3df6BuOoFEKPCRsLpVHgULiWeWCOp0jP3AtNuTPi7eyFh1L/YRH0t6KgEw8cNzoXCDDP97DNHZ9/R8SypWcxYu9qK37c00ud9VsuE1N+vT9lzAMvhjCcDVLaRGGRVPtskXRE3xOyWiylgLBj6APU066TbSRJVR8RQST8PYj35N4nos1e7k9AOBj4ZP0PEK9W3717/Qb4CVIurbnteu5FF4tohVDXbwtH88oZ34Dn00fCwK6uw1jb4w8CFKtflPde+bONq5q43ZtTKSforW/hBSdTnw9yE673p4vpVHZRuwe6KBi75bizTi1qUs+nqt4aEqp05neyFm6G6IH1cAliZ8jFLeHrLqeqcHZ/FiBbD0fyYGCEpRBgY930XmroiyPkAGuRyAXBEvDjyzciZmuOJ+pwT78noZEkyc8yKWTN/E0T3OmFIa61hbkiAFpq5HZlhUGWv45Bwb7rlkFzaHA7QstG27Viy2Nifnz2LagtkpE19iPxER/c7mH/zcFcUeErIOjnE06YLYN6Hry6hoEiz9U4JCx3HA9Px1ZsIKuNfQD0zUazJelHow3H0QFGQCAAYRm3FrWIIZKdXJjHyb16wnUdbHo9sOZ2CKMrRghivp7xRDeioBg+/3Xwz+O4qc0Rgewpo0PCQ9lWC13eNRgvXB+5vGZFj6pmCCg13YXKkOPQFzBoVmEUq37RTJxwhkRt3Mz3h79n4RUbo9/uDHuIUFGas12DVE3rS66AJZytuzkromFG0D2rcEY/99ezaU8jQDYEIDbNjPk545z3MDn0BNkT3cI3i9KqNSs6ee68FhqH5g2w9MnPUBgCEGA3imt0eY9neKYV1awMqUQ2VkC2U3RUFCnAz+WLIwuOuVME96OG+UoZXs81JpTFicU4SZHyJK4PEHP/1/8HUArF59DmQkRMNEWWg1e8aRvj9EoSljtZaHchIzw6y0BAWA0Z7cANtDMRYuPg79/w8FDAKjDFFUfZETZMTUCgmDgpJqz+6ZebbXpKyPO4y3AAnXnv0a1wJZwJS/Uzzr2w2AQJaNHlAGOXzHubcmrVZGveZ9zmxBhrHfxottZ1tTTkYI1iCFg7oMJHXIgJko5R5/8IMhOh9MrNaKo97iKFU+6IXT5zChO42pO5wlnDnicrMxwWGdICej5K1LcC/Q4+EyzzRj77BXbODj/Zx5VBq3nv3NoNB4gr4z28v6+B2Wlh9PHVdlVGqLsAaIudljtOisj81434O1lYdW/Wf0fUvVV3bh9Tv3NUl/p4TcwvHaOgqGZwZRKQ8NMTPP6OeVliB1+v7ift8QWRZac2HGIMMJ9HPxHY7x/oyH8sKzz0Qz0ri+D1Ga/efPP//8311t7K+//sLff/+Nf//99642mVywjiEw9u9Oixb1DL3r/IhWNRbVPYTX0RE3psHtGQfH9r2KPDOshGvyRHyOcA2R4H1934UdUKFRhoZwLzp+tpezanPcitNJV26O+Z0ia6QiPmvou+M6PzOZdthr0vR3oVIe9Te38bMKvbdb+fgkQadgsumH84goDX6f4IeIJpruLux+vk5D0uxaINCNnhbvyYgKgtfgflv6Kc6fqk7wFXGD1MR4E1+iNGLwQ0RTmOY+W45SHpVn/UDg4w1akg5BjV/DRQqJ6Gcw+CEiIqJU+e+8d4CIiIjoITH4ISIiolRh8ENERESpwuCHiIiIUoXBDxEREaUKgx8iIiJKFQY/RERElCoMfoiIiChVGPwQERFRqjD4ISIiolRh8ENERESpwuCHiIiIUoXBDxEREaUKgx8iIiJKFQY/RERElCoMfoiIiChVGPwQERFRqjD4ISIiolRh8ENERESpwuCHiIiIUoXBDxEREaUKgx8iIiJKFQY/RERElCoMfoiIiChVGPwQERFRqjD4ISIiolRh8ENERESpwuCHiIiIUoXBDxEREaUKgx+i1Mug0FxHQRX9LQttu4xKNfPQO/Vbk0pZSJ7/K40ytNIcdqSUR31b9NtnUGjmUVBn+92VRhlaIwvlZ/etuY7CPL4XAEopO/HvUnUd9aYMpbo+n9+Ofsr/zXsHiOiBqTIqW3nfxRcAsCmjv2vC8j04xGBgYfBxGHhyBoXmKzyHBCnnebjbxtHlS1S00NaBbhut/es7+ACPXQbqmyJWayb0nR4MANaliYEx4SW+38yEvneLtU1A/7CASk2e/HYTvnfp2SIs/RM6/eD7PcHznAxL6QHBvyWkANBne+lo34Dv6J9M8Z6NMtaWLEg5wfEXycLF3ln4OygWUX/Tw1HonHBe9e0GFv6BcWgCjfLE59KvZ/7BjyqjsrWAc6cRoJRzGnnr4Bj6FI0eJeBeQAc9HO0cwyrlUS9ehS6MUikLnFwnasS/vjv2XzRKeVSefUJrxx8sKY0yXrTvM/DJoNDcwOooEIu4oJXyqHuDhXkEZOoTPM+NAx8AsD7eIvc6A/SDQaajb+Jox3T+k4XWXID+DtDeXqG105vwXjIqWy9RUAXfBTJQCzc43w2/p/R6GdBPf+octC4jPkvwvarr4WC528PFkgTkJFS289HvoZ/i6HD8PtalBVx+Qusw2XvHMT4kC2aM/VNcNJ7cyXvSw5hT8GP3GvHuDJ3+LawBYME5CZ5+Zu+Q6D74LqATPHuJSvP7I+vFDtHZPUYHcAKcRfHTTnponfQwCpYecA9dyts8oJ/6O3t9E1/e5qHgHjqBg+/o+wKfQKC4PQ4GjYNj6CdZrGkSJGygrvk3FQw27oJ1eIbWYeDBUt7OpOzczzGoNPLAftLvOgttuxgxhCf7vqPV7QVfUEu/rjkFP0N0PtygvlXGateEAWCtWYaSs3CxN2PgE0rlm7MdhMGeYcT2hL0VABjMlvoMbW/G7Uxt9Hmjvy+lUYa2Mv6/MTErM24oIhvK4G8182cNNkoRvX2amtX55xEFPo+IKmNtxcT5fvi8MN7fotLIwojq/KkyKpvLQE6CBEDZsh+ubwPTt3eBc0WVUXl7a5/XpSVI+qk/e+Jm6EPncxZa8yUkZ598VsLBExDXftiUogzjw/HPHYMRmU37N5AhbSPhd3YNfedYuP3Ks/6dB4P0MOY37OX2wJxe2sXeMfRZL1rOBdwanbB2z0ZLfHAHJb2IzhhgBUjVdVQK33G0c+ac7PZFvdLEPQZATuDQbUPvyr7gZsztHXt6YKqMylYZlWfiwEZpRPWQ3L+Xoa1YuNg7/rkgxQ2gPMMWSqMMbWsdYAAkEO69WgMLyMnOxdPRbePoMuk2JaxulQXZE1l80WtPsbu/pQwKm/aQrrDN6JvQL9dRn5h1+w595zPWmgs4fwdob29x9H4Blbe3d5RtyEJ7cwtdMBQWKXeD850z3/vbw5zBIMcerjuPG0or5aEt9XBRLKNeC/7RwsXBdzyvLeNr3Hl+0kMLedSbC57v0/4NpMjhzsB5suLsA+vVfjvzC37cjEPXhDG4QW6zjHpulmAig8Ib2W60RxfjITq7beS2i1ir9mEcDseZlcBBHPX43QnWIgjGqUNp32uc6xYUbRmqagZO8GS1DcFMkv89Myg0i8DBMVongNIQ77lUfYXVnAndm3rumzjv5qFpKpTDwG+lylhbAYyDNlArhnuCpbwT+CQLTnwZp0B2SHnr1K54fjNj/xQXzQ2svs2iw4YqINx7tYeZw8e9VE26TcFvGdEbVhplvPA+oMqobC3j695n5LaKUJxt/Xjr/ObB3zuQfXyIi1EoGxv1ngnriKTqKzzvnOJowsXfOjyD/rSMynY+OkOiLkC6uoWFhcAfIorQBxNqggKUxhK+7PZ+ssOVwR9L1uQC7gj2dw5c7PXQ6Zv2MGZg24XmBqRuDz+UCTVSrpMeWoaMSlOGvmsC1Vd2Zy7y2BmfJ/4ALgutue7JcJnQDwDpaQaAe3254ZDXIzK/mp83dranAxmVTUDfPcZ5dR2VRna6Rk19guc5wPgQbMBf2tF74QmkQ3PUqGgrnuI/VYZ2r4EPoDReAe+O0XIvEKU86rUNVDDD2LmvYNXTk2nIkPaDFwoTutsbU2VUtrzvaddHxJGeSsDge6ghNNomsLKIP1TAGF34xj2qoxNAC/XYxkFqfOBjQXpThnbVRmtmCOouAAAgAElEQVTnGqNMWOPW+Z2yeLECWHpgaKak2kFhbgkKrtkITWTXdaA73714vvkSX/dOMdjcwPPNdUhXbbQOllCvjQN/qbqOF+1jtPadF6kyKltF1Bv33WHxnEPOMVhvioMyX6BSykMrXfsDl1Ielac3MEZDQYFgz8M4OMbR5ToqtTLqNUGHUFmA1TaBUPBj8xWhq3b7mswCrPc9WG6GJph9GtwmDIoyyOWAQdK3DRDOPnOE2tMk+iaO3smobJchIdCZS2yIAW7wZecMhhPgGxivDyA9lWDpn9jmPCLzq/nZPbP/qQLILUACYByeoTXtppQFSLDw1XPUKY0ytKUedB3QNHvbFjyZgU0Z/d1/oG6Gswe2YDo/KiMlQ/MUC4pqV4x9fzoYJ31cvJGx6gZlER9LeioBMPHDc5KPsh2+9xiis+8pYh1lXzz72zeh68uoiLI1E1iXFrAy/v4Ce4icgtE02FGWaNcOTsLsBtHqAIVm2ZcJC/dwJfsiOPpd3EyYE7jC2adv4+Bx1PM6MKHVgoEZBY06BytF1LeT1WHcw15AurKD4QIAKXdjHz+lJXiPL+vwzD9l2s0+rtxTkFtSsZqzcLHnPVeuoR+YqNfyWCuZ9nc1OtcC391Jz7e//okcbhYmg0KzjBcfPEEdstC2l/DlBLAgKAJ2qEXgyz7stnOliPoKgG7EmGLfxNGu6A+CIctuG1bf/qznnZeezsZ0pOpLKN3vGGyWUelM0ckr5VHRJFjC+fF28Cnppzia5bzu24GbBBkvSj0Yd3GsG7ew3tht0YuIOi76dc1/qnvfxNHOXW1sfIK09oeQqsuBvw/RedfD8608KtuA3fsKBCCj2SAut35o0ZfiDw9VOdmJ2Gr/IX5cAVia8DFKebs32L3ybCci2xEgvV6GBDM0rm59uwEwXVBgffwOS8tDa3iLBrPQQgXhdhZhYs9HtRsJSXsJ7I17blLV7uFq8F9AjMC0aHv/ZfuC6HsTp5fuZolK0dNiyZXFmnYD/eAGWvEKrf0hCs3xOiXJZJDL3eDLTwaY9u/sLKSXOLPgBuY/995RlKI9AeBH8LOdXMGoyZCeOUMdEeeaXxYqPqEVujBmkMvNMDSUyyP3wZnV5s7eU2VU3k65HWHBs+evH7/D2poluHSOrR0TBkz0q+uobycYDlJlVN7cQtctrEU+yRQUXCejNJxhfuRRF7Q3yYw7u5bedwKqBaC0BKV79VNrGtHDm3/wc1eU8fowk8bUx1kQaWJ6dWwcMD1/nUEncozZ7RkGehZRC8pF5YTd+oFgRkoNZztE7IyR5M9IjUyZ7O2bONqDPcQwKoo1oR+YUGqLo4ZbaRShDHqJenjB79w6/ISLwgZWi/baMpEM0YXRE+xyxkVi7oXAgBsoujVySxFZvihyxHF21wXPUVONb2bdYLwJgdioziNiWNjvGh1RBkddgDT4jvN+4LEEu6bUBIXAUZmfWfVvYWF56gyq0niJwd442z0qN2je4mj3Vvwi1S19MAGnwxo1m1YJHW9xdaJ25yj3wQ12ejh6tohKbR0FY5qJERnk3JrUkoyCYbc3A7yE9ga4eJe8rop+DY8/+DFuYUHGag2hGUTCxslJrRpdE4q2Ae1bgh6AkzJVnEZv8r5g1DMUzUgC3GE5wetV2Vmt1YQeHG/vB7Ydwe4R32HhnWBtGKm6DuDG7hmPiphjxtFHaecZeYc33d+jVrTrIzy/n70q7E241062Uh5rl07RrW9J/mvoO/Yxmug3Uhec+onAcZa04DkxJ/AJDPe6hbHz4C7eN3lYeDLp9TLQ+RR+XVz2S7QsRGzmJwuldB0/1LO0AAnu4pbX+HLweRz4KAuQEBG8OO+hbdtBdXDWrvG+B2sr4vWewMfbPogz60v4MlW7loW2/RKDwEziUYcrwcQIN9C09FMcuYtJnpjoIANJHeLHlQRpqRdYR4keg8cf/PT/wdcBsHr1ORDFi4aJnCGbbhv6/hCFpozVWh7KScwJVVqCgvBQTJCdBrdw4dwKYPT/9wnGzUcZoqiezBCDAaDE1ArNMrw1nQzUwniIyx4igHjKs2YXd7ozzQYDUQDp1gJNztz4hyKu8aULKEu9wJCDvW/ofmbhocho3ZO4LNkNvoZuZxGgLEDyDcveE/fcS7jS7l0w2iZQE8y0LC3Zs9Kc78Ydip2+hiSLNQ34uhf4jmMDjBmpC/hjhtooY1Im1kd2lhWJnsJvlzZkwwFwZE3STxrdOeBM2JZ23vWQey06xsdZRuPAW49lG886NKHvXOHFCvxZ/FIWygknWzwGjz/4wRCdDyZWa0VoJTeLY0/l9g/FOI/BhO5E++5wlr+mJcDNxnTbkzNEo2K903FdkNM4jofLPNPUvSdMbODj/Zz5QCFiBoXGE/Td2V4nfVy82cDqVh4/7nrapTeT5Xyvxv6xoEjdU5zoyQCEfyd3XSAT+qRhK6cGylvEbfcm89Cq/4zeQ2lseIquyUeVUREt+CZgHfYEU4z9lKIMo/0AqX4nm6p4hkXHF6B7GvZyzyHfvc7GHadRQOROXggOoZTy0NCLbC+k6ktI+ifxumZXMZmfXF58u4dBD9KEjHAuJmOcSOS+3c16Z3cqrpa0b0asK3eN871T6J7yBu8yC+OAyJlyr7dxURjPRFWeLcAC25/H4DcIfuAsZgXUvWPhoXVC7KDD0vuCWVDjabOisebg0Iq9veAUVcHCfSfO+LI2XunUODiGXvQPeylv3ZogQQ2F93Oc9NAybgM1OHbhom/21+4xfjTK4W0FFwT07b/nvUfPE62g/BOLE0b9Tr51hJxMnq+uQfC+o3ok7yqyv2Aj/Kvomzjaj39aMlm8CGXd7knfxNHBAuq18TFv6ac4unzlH/YS1NaNspGecyh03OfG2x3P2hqis3sKNDd8gYYVqi3znGvezGe3HcoYjJTyzswvwf20ni3Cuow5uaKGvTbt/el3gIpw4UkzMNNTMNtrwnpAifYtTsKaJimuvCDu9Zp4ZelJvDP2rEBdp/G+Df39tS+TrjQ27DWbDofAxx6ebxVRb5gwlm5xHjFLj34t//nzzz//d1cb++uvv/D333/j33//vatNEtF9mbD8/6RbxUjVdax9OxNnNrzb9C3+x1uPKI0yNEQssgog9jsK1Mf4Hn97O2HhviDvvRWjt53stjZxtTiBDlTMrWyC93f0fz/TFjffB09tk/c9vGuwPap74qUXgx+itIoKfjyURtkukB5lPLIoVIfoRA1TCoZ8pOo6NHxK7z2Q1PFMVPFFWRCM3KvAUHncc5ueLEdQVEAm3I6KH7uTM7NRgbX4dhkPrJRHvTb5lknT3TCV5onBDxEREaXKf+e9A0REREQPicEPERERpQqDHyIiIkoVBj9ERESUKgx+iIiIKFUY/BAREVGqMPghIiKiVGHwQ0RERKnC4IeIiIhShcEPERERpQqDHyIiIkoVBj9ERESUKgx+iIiIKFUY/BAREVGqMPghIiKiVGHwQ0RERKnC4IeIiIhShcEPERERpQqDHyIiIkoVBj9ERESUKgx+iIiIKFUY/BAREVGqMPghIiKiVGHwQ0RERKnC4IeIiIhShcEPERERpQqDHyIiIkoVBj9ERESUKgx+iIiIKFUY/BAREVGq/N+8d4CI6FeiNNbx4vIzzg+vYU3zwlIe9doiLvbO0Ol7/5BBoakC7/ro9IfT7Ywqo7KVB/RTHB1O+doJlEYZGtpo7V9P98JSHvXi1fSvQxZa8yWknARp4vNM6Ds9GFNunWhaDH6IiHwkSBhOF/gAkJ4twtI/BQIfAOoTPM/JsJQeEPxbHGUB0qB3p4GPy2hPG8AAOOlBL5ZRb/ZwtGuGviNJzcCKCvByNzjfOYsObFQZlbe3DHzoQcw/+FFlVLYWcP6Yo/1SHvWa7HlA1HvJoNDcwGpu/Igl6s05Pb1x78gS9CSJftJvcZzZ59TzTvA8ino8OevbtK/LQC3c4Hw3/Drp9TKgn0I/mX4/lCKgC4KMKFJ1HRVNnFsxDo4T7kO4rQIAdNtotZegrQBAHmslE1+KZef/XlHZGxnathx6NPgeRA9hTsFPBoXmK+DdGTr9W1gDwIJz4j79PENKdY6cwEcYyIy4jUlMSte9IHVnSEcTJfWbHGdKwzmnQufdEJ0PJlZrG9C+Jb3gzyoQKHgu7nawkcWaJkHCBuqa/5XCNqOUR/3NIizv8FBUwDAIZ1+swzO0Dn/i4wAAhujsHqMTfNgd8trpAbCHzl60j9Ha/9n3I3p4cwp+huh8uEF9q4zVrgkDwFqzDCVn4WJvxsY41JOdZew4C227CCXqz4LGRinKAEycT+phqk/wPAdYen/i/kivlyHBwsV70XcQ0RuDvxFVGqKe2OiZvt596LnCi2H4O0neg5zR1FmJ8T5ODkIJiDvO5mt0TMYEZlJ1HdqKhYu9iHP8pIejZ4uo1NZRMMTHjtIoY23JgpQTZEpWyqjXBNsVtAGh49MZvtFPAJSWIOmnaHmPSTfbHXmcfoe+czYh22O3BbkPyTNC4/f1nFeBzxh17kjVPNSPvXAw5O5LNYPOYZJjKb7zV1B+vWOSfk/zG/Y66aF10vMUCR5DnzXl7sm+2I2M3Tho25gyALqGvnMseNy+uEqdf8SNzeA2USOULJV+gx+TvoeYi4Kxf4yW4HGlUYa29B19b+CDNlo7zrZUGZWtIuoN7/btz42DY7ScYEeqrqNSK0PDPQVAqozK1jK+7h37g7StdSAiAFIaEwJWihBznD005xw2DtowVuJ+TzubYumnE4fprMNPuChsYHVTRl8wdGRdWsDlJ39ggnFGI3h8S9V1rH2bJuDIQntzC10wFDYXfRNHOyaA8GdUGuv446NoP7NY02QohVv0P4g2OkTnm4r6djHcKQp1YgAlbtgLeayOArLHOBRLj8X8gh+3TqZrwhjcILdZRj1uWEgog8IbGei2Pb2WITq7beS2i1ir9mEcDsdj4YHgIepxL6n6EgosXAgbh0dAlbG2Alj6OHgLBUl9E+fdPLSVJSi4dn6DcDBoHX6GoRWhFLPAiff7CmamohquYCYp8Jt7GmiX8b4HayWP568z4dkyzmczDtpArRgzk4TiOYF+IAtgnyc3499qFKSe4cdbTwZRmBkJ16L4sgyqjEoN0HeOYSALTZRx8W3rJRSIhruC3OEvuz7lfoe/wpTGEr7s9qYunJ6d99yyz7/+a//3Pg5QLAxGJ10GfyyJt6g0iuPMVSkvfpLTkVUaZdRrnvNZcC4T/SrmV/Pzxs72dCCjsgnou8c4r66j0shOV4fgDCkZH/yvsRtIAIUnkA5NWIdn0J+Woa28REF1LsqqDC0m8HF7mei2RxfycFFhHpXtccNgN+yZ0HCRVPOmmZ1GIlQsLfmLAu+gLkN5m4eU6GIxK6fR7bbR2rX3VaquoxLM1nim7ba8w3RTZ+hcGRQ27dqVoxPEXjRT7V6OMwmrW2U747o/hHscVBq3nm25QbFln++jcyiPgtqz/983cbST9D0zUAsS0P2c7Hg5uYJRkwXB+n1bgPW+BwtZaM0FnAcDwknZ4py/PYkS/vzezkoGhWYZlStPdnckOtjxkqrrWLtMPoxs7B9Db5ShNQRT4VUZlc1lwFPLZOmn0PEqVKB978PqRJhnzc/umf1PFUBuARIA4/BMOGQzkbIACRa+eloCe4inB10HNM3etgXA2D/FRdNNg/8DdTNvTyOdWFvgZH089RHeokL3vcK93eG4IXIu+pbopHaH/yDoXYusFFHfHv83tsZllPWZXG80ahDjhvBU5/u89GYFnJ74vvc7coYc3mbRcR5X3uZD03aN/TYMT4ZOSHGOj8CwoVR9ZRe87l4DyE78dKk37XGWlC/jeo0vXUBZWoAEZ42ckuoEPv4soHUYVUMSI6KzE02wT3fODgJXvQ9127D69vufd14GAsIYEdmzMafmZ9I21Cd4nrNw8S7qPScPe0rVdWj4BB2vUN+2W9AL/SbU/mAlj8KzRaxqsH/jiGF3m7+WyX2P1o57/GShbS/hCwMfegDzn+o+Va8vzjhl39ofQqouB/4+ROddD8+38qhsA3ZqeFIjE876zI9gBkYpj3ptA/Wn0b32pFkfO5DwD42FOZkW3xBgVE98iB9XAEYXnSxerIi2P8RgAChPMwDENQdazS4q9zeKbt3Hp8e7RMJvIG6tGKUoA4PeqNbspwk6O3GsSwtYGXeCvCQtPAsLQGTBs3EgfAdBwbPnrx+/w9ryDiffP+Wt3dnq9LMoVIfoBJYCyOE2eskhVcYaPjlBrdvRswub3ZleY1lo23Js/RWAiIxW8Ps38SVmM0R3Yf7Bz11RxtmVo0k9h74JXV9GxblwTjphRVmfX8pJD3pRDtTpeCTM+njrnuKn6wPGgbcXn0EuByAX6BG6Bu6+2BefyIvNleg93RqG8KwepVGEck+Lv9FdcbKJV8kmBMyDKHM6qeBZexYVpE/Qv4WFZfyhAsZDdKJUGWtoO+3gNfpYR6X6afw5S0tQrq6g+17kyQT1TcHkE7uwuVIder6vDApNZ7g7yXkYyGi5mZ/x9uzMD9FDePzBj3ELCzJWa/DVFACA9FQCBt/9DW8pj4omweiaULRJ64D8SlmfaHavdlHYsCbK+jjfB2KG/+w1VZxxet/35WRurmJqRvrOBTDxVHSnYUUw2LL32Z7mPOVUX3pgwezfr8U6PMPRfT3f95mv8eXg8/j8VBYg4Tb6tTPX/ABABoW3CA1Bf22O2zqlKMNo93yvyeWAH3FveNLDeaMMreRsp7GB1bjz3ouZH/qFPP7gp/8Pvg6A1avPgSBFNMziDKF029D3hyg0ZazW8lBOwrUPv3zWB8BoyEk0rJAk6+MWwcbUGLhrr4jri5Je4OKGt/yfa5xlCgen9tpKCNdZAICTWeJ6P3fJOc5wM/Ur7eB8Gapq3k0nwuns5BQkvlWEsBP0wIxpiq1nrvlxF4/9BLVZ9s+81E0ob2RIBrC21Ju5oNjYb+PFtjMkOGWRfPCcDGd+MpDU6W8rQjSLxx/8jKazFkc9klHWwDcs4mYSxoW5bv1PeHbC48j62NkYcQYkNutzJ4GPzXjfg7WVjynqHP9OlWqS1bCjZ32I1zIST9GmaTlBqjtLcsLimkm4SyOsbuXxw1NgPVo4b9rzy+3sJJ69ZXeC0P3Fht7uZShwiB9XErStV7jYO0Yr0BnMPQWkty/x9V1gAUV1AVLCtcpGx0duinuDeWYahoe8RcPgXN+H7t9vEPzAnskCoO6dSh64qI+Hbfq+NWXs+h//4n7uNPmZbvx3bwSrTw96ONoRBC5O1gfdq+jU+BtnmrMoFe326NztQFyrMwpO+iaOdm6hbYfrfnwBzEkPLeMWla3gtjyNXUkdXWiVWrDolI3i/RuvkeUeF5Z+itY3Vbzicaxr6DunzqKj46n1ln6Ko9HvKDi2PbOK/EHwEP2OhVUtYQFxaekBMriC2V6DYGGw59nPFmFdTjiIf2LYK2qRU+Aa55frWPt2ZtfzqBlIfSfLEjcM5/IuJvvxCSpbgXV9onhmGnqFMz9ED+c/f/755//uamN//fUX/v77b/z77793tUkiogDPulITh12crNU0dSmILniOfg/3PoXOQ6q7dpm38+W/lUzkWjalPOpvbpMNe31Ivh6O0ij71+wJrL4cndn1ZP4E37do8crzpyqw34Pxk1nD2W5RRJTM75H5IaIUuca5bkHRvEPdYfbyDZPWuhHJ4I8l7+rHCVx999fc9U0c7fqfYmdkxnebf7hF/MaBkm8WrLP6sjj74g1aLMEQ2th4zTPnNdoGXhwcOzPJIm6QSvQLYOaHiB4lO5sSMRQ6ulcYVwsmorD/znsHiIhmYeyf4mIg4fnrTOAvdk1beFkGIiIbMz9ERESUKsz8EBERUaow+CEiIqJUYfBDREREqcLgh4iIiFKF6/wQEXkojXW8uPyM88Mpb8ZayqNeWxRMvc+g0FSBd310+lOuZuwsRpj8hsDJKI0yNEy3+CMA+zMWg7cDSiILrfkSUk6CNPF5XNiQHgaDHyIiHwkSpr/BpvRsEZb+KbzmkPoEz3MyLKWX+GasI8oCJN89Cu/OTLfvOelBL5ZRb4rvCSipGVhRAV7uBuc7Z9GBjSqj8vaWgQ89iPkHP6qMytYCzh9ztO+5cZ9N1HsJL/UuXFI+sOw872dF9+K3OM7GKyaLVigOP56c9W3a12WgFm5wvht+nfR6GZhxzSGl6L9NRpzg7Sa8ki/4GHFbim4brfaSc5uOPNZKJr4U/bftsEVlb2Tf/d2Euu0kO0j00+YU/Hjvh3MLawBYcE7cp59nSKnOkedmf/F3Ko9J6boXpNh7FhH9hN/kOLNvVmxCD513Q3Q+mFitbUD7dt8rPAcCBc/F3Q42sljTJEiCu5cL24xSHvU3i7C8w0NRAcMgnH0Z327iZ0TclsId8tqxb1Lq3gOttf+z70f08OYU/AzR+XCD+lYZq10TBoC1ZhlKzsLF3oyNcagnO8vYseDu0l6CxkYpygBMnE/qYapP8Dx4R3kB6fUypMg7UEffJNDbiAZvoBh4pq93H3qu8GIY/k7u/ZYBU2clxvs4OQglIO44m5fpjjOpuu7c2iLiHD/p4ejZIiq1dRQM8bGjNMpYW7Ig5QSZkpWy+C72gjYgdHw6wzf6CYDSEiT9FC3vMelmuyOP0+/Qd84S3Ng0eUZo/L6e8yrwGaPOHamah/qxF3GPrgwK1Qw6h0mOpfjOX0H5lY5J+p3Nb9jrpIfWSc9TJHgMfdaUuyf7YjcyduOgbWPKAOga+s6x4HG7YZY6/4gbm8FtokYoWSr9Bj8mfQ8xvXX7BophSqMMbWl8A8ZRweOOsy1VRmWriHrDu337c+PgGC3nIiRV11GplaHhngIgVUZlaxlf9479QdrWOhARACmNCQErRYg5zh7UtMeZnU2x9NOJw3TW4SdcFDawuimjLxg6si4t4PKTPzBB9F3dpeo61r5NE3Bkob25hS4YCpsL52amQPgzKo11/PFRtJ9ZrGkylMIt+h9EGx2i801FfbsYDlZDnRhAiRv2Qh6ro4DsMQ7F0mMxv+DHrZPpmjAGN8htllGPGxYSsu/jg27b02sZorPbRm67iLVqH8bhcDwWHggeoh73kqovocDChbBxeARUGWsrgKWPg7dQkNQ3cd7NQ1tZgoJr5zcIB4PW4WcYWhFKMQuceL+vYGYqquEK9vADv7mngXYZ73uwVvJ4/joTni3jfDbjoA3UijEzSSieE+gHsgD2eXIz/q1GQeoZfrz1ZBCFmZFwLYo/yzDNceaej6LhriB3+MuuT3no+3wpjSV82e1NXTg9O++5ZZ9//df+730coHjvXJ/BH0viLSqN4jhzVcqLn+R0ZJVGGfWa53wWnMtEv4r51fy8sbM9HciobAL67jHOq+uoNLLT1SE4Q0rGB1EDCaDwBNKhCevwDPrTMrSVlyiozkVZlaHFBD5uLxPd9uhCHi4qzKOyPW4Y7IY9E0rjSzVvmtlpJELF0pK/KPAO6jKUt3lIiS4Ws3Ia3W4brV17X6XqOirBbI1n2m7LO0w3dYbOlUFh065dOToBNNEwBdnu5TiTsLpVtjOu+0O4x0GlcevZlhsUW/b5PjqH8iiovRl69RmoBQnofk52vJxcwajJwiDqfi3Aet+DhSy05gLOgwHhpGxxzt+eRAl/fm8QmUGhWUblypPdHYkOdryk6jrWLpMPIxv7x9AbZWgNwVR4VUZlcxnw1DJZ+il0vAoVaN/7sDoR5lnzs3tm/1MFkFuABMA4PBMO2UykLECCha+elsAe4ulB1wFNs7dtwbkLdNNNg/8DdTNvTyOd0OiPsj6e+ghvUaH7XuHe7nDcEDkXfUt0UrvDfxD0rkVWiqhvj/8bW+MyyvpMrjcaNYhxQ3iq831eerMCTk983/sdOUMOb7PoOI8rb/OhabvGfhuGJ0MnpDjHR2DYUKq+sgted68BZCd+utSb9jhLypdxvcaXLqAsLUCCs0ZOSXUCH38W0DqMqiFxCI4z+3FxZyeaYJ/unB0Ernof6rZh9e33P++8DASEMSKyZ2NOzc+kbahP8Dxn4eJd1HtOHvaUquvQ8Ak6XqG+bbegF/pNqP3BSh6FZ4tY1WD/xhHD7jZ/LZP7Hq0d9zfOQttewhcGPvQA5j/VvW/iaOeuNjZO2bf2h5Cqy4G/D9F518PzrTwq24CdGp7UyISzPvMjmIFRyqNe20D9aXSvPWnWxw4k/ENjYU6mxTcEGNUTH+LHFYDRRSeLFyui7Q8xGADK0wwAcc2BVrOLyv2Nolv38enxLpHwG4hbK0YpysCgN6o1S0Z0nLkbDHd24liXFrAy7gR5SVp4FhaAyIJn40D4DoKCZ89fP36HteUdTr5/ylu7s9XpZ1GoDtEJLAWQw230kkOqjDV8coJat6NnFza7M73GstC25dj6KwARGa3g92/iS8xmiO7C/IOfu6KMsytHk3oOfRO6voyKc+GcdMKKsj6/lJMe9KIcqNPxSJj18dY9xU/XB4wDby8+g1wOQC7QI3QN3H2xLz6RF5sr0Xu6NQzhWT1KowjlnhZ/o7viZBOvkk0IcF8jPs7uhyhzOqngWXsWFaRP0L+FhWX8oQLGQ3SiVBlraDvt4DX6WEel+mn8OUtLUK6uoPte5MkE9U3B5BO7sLlSHXq+rwwKTWe4O8l5GMhouZmf8fbszA/RQ3j8wY9xCwsyVmvw1RQAgPRUAgbf/Q1vKY+KJsHomlC0SeuA/EpZn2h2r3ZR2LAmyvo43wdihv/sNVWccXrf9+Vkbq5iakb6zgUw8VR0p2GF4CJYyjvTnKec6ksPLJj9ixd9nN096/AMR/f1fN9nvsaXg8/j81NZgITb6NfOXPMDABkU3iI0BP21OW7rlKIMo93zvSaXA37EveFJD+eNMrSSs53GBlbjznsvZn7oF/L4g5/+P/g6ALzhFh4AAAa4SURBVFavPgeCFNEwizOE0m1D3x+i0JSxWstDOQnXPvzyWR8AoyEn0bBCkqyPWwQbU2Pgrgckri9KeoGLG97yf65x7z8cnNprKyFcZwEATmaJ6/3cJec4w83Ur7SD82WoqhnbiZh8nDmczk5OQeJbRQg7QQ/MmKbYeuaaH3fx2E9Qm2X/zEvdhPJGhmQAa0u9mQNLY7+NF9vOkOCURfLB3zWc+clAUqe/rQjRLB5/8DOazloc9UhGWQPfsIibSRgX5rr1P+HZCY8j62P3ksUZkNisz50EPjbjfQ/WVj6mqHP8O1WqSVbDjp71IV7LSDxFm6blBKnuLMkJi2sm4U5ZX93K44enwHq0cF5gwc3YoNXt7CSevWV3gtCdZujtAUw1FJjUED+uJGhbr3Cxd4xWoDOYewpIb1/i67vAAorqAqSEa5WNjo/cFPcG88w0DA95i4bBub4P3b/fIPiBPZMFQN07lTxwUR+n0/u+NWXs+h//4n7uNPmZbvx3bwSrTw96ONoRBC5O1gfdq+jU+BtnmrMoFe326NztQFyrMwpO+iaOdm6hbYfrfnwBzEkPLeMWla3gtjyNXUkdXWiVWrDolI3i/RuvkeUeF5Z+itY3Vbzicaxr6DunzqKj46n1ln6KI0+BcKLjzNm/fsfCqpawgLi09AAZXMFsr0GwMNjz7GeLsC4nHMQ/MewVtcgpcI3zy3WsfTuz63nUDKS+k2WJG4ZzeReT/fgEla3Auj5RPDMNvcKZH6KH858///zzf3e1sb/++gt///03/v3337vaJBFRgGddqYnDLk7Wapq6FEQXPEe/h3ufQuch1V27zNv58t9KJnItm1Ie9Te3yYa9PiRfD0dplP1r9gRWX47OuHkyf4LvW7R45flTFdjvwfjJrOFstygiSub3yPwQUYpc41y3oGjeoe4we/mGSWvdiGTwx5J39eMErr77a+76Jo52/U+xMzLju80/3CJ+40DJNwvWWX1ZnH3xBi2WYAhtbLzmmfMabQMvDo6dmWQRN0gl+gUw80NEj5KdTYkYCnWGaLhaMBGJ/HfeO0BENAtj/xQXAwnPX2cCf7Fr2h5iujwRPU7M/BAREVGqMPNDREREqcLgh4iIiFKFwQ8RERGlCoMfIiIiShUGP0RERJQq8w9+VBmV7bz/tg1ERERE92ROwU8GheY6CiqA/i0s56Z6UnUd9UZ2PrtEREREqTCn21sM0flwg/pWGatdEwaAtWYZSs7Cxd6vdDNRIiIi+t3M795e7p1+S3nUa4u42Du27zZMREREdI/mF/w4995B14QxuEFus4x6jnfxJSIiovs1v5qfN3a2p/X+FhJucb57jCN9ERprfoiIiOgeza/mZ/fM/qcKILcACYBxeIbWfHaIiIiIUmJ+w16uvomjnXnvBBEREaXF/Nf5ISIiInpADH6IiIgoVRj8EBERUaow+CEiIqJUYfBDREREqcLgh4iIiFKFwQ8RERGlCoMfIiIiShUGP0RERJQqDH6IiIgoVRj8EBERUaow+CEiIqJUYfBDREREqcLgh4iIiFKFwQ8RERGlCoMfIiIiSpX5Bz+qjMp2HsqdbCyDQrMMrZT8FUqjjHpThnQn709ERES/ujkFPxkUmusoqAD6t7AGt7AASNV11BvZqbcmVddRqWYADPHjysLAQMKgKosXK4DxwYQ1y8cgIiKiR+f/5vO2Q3Q+3KC+VcZq14QBYK1ZhpKzcLF3PfXWrMPPsLY3UNdMGF0Ab9dRX5Fg6acwJrxOqr6EAhP6yayfg4iIiB6bOQU/AE56aJ30gFIe9doiLvaOofdn3dg19J1jAFlo2zIk/RSt/WHMazJQCxLQ/TwxQCIiIqLfy/yCn1Ie9ZoMdE0YgxvkNsuo50zoO70ZgpEstO0iFJgwuhasp69Q35ZgHBxHZ3VKKlZzFi7eTZ9pIiIiosdrfjU/b+xsT+v9LSTc4nz3GEf6IrSZan5e2tmenT4GS8Dg/Rlaez1IteiaH6UoA4Pv6M+cbSIiIqLHaH41P7tn9j9VALkFSACMwzO0ZtiadXiGIwBABoCEnALgxMTRTtQrnELnAxY6ExERpc38hr1c/UlByrSG6Owexz6Lhc5ERETpNf91fh6cXehs6X0WOhMREaVQ+oIfp9D568e42WBERET0O0pd8MNCZyIionRLV/Cjyljjis5ERESplqrgR3q9DAkmvrDQmYiIKLVSFPyw0JmIiIjSFPyw0JmIiIjwK6zz81BOemhxuIuIiCj10pP5ISIiIgKDHyIiIkoZBj9ERESUKgx+iIiIKFX+H83zqmIftGkKAAAAAElFTkSuQmCC;" vertex="1" parent="1">
                    <mxGeometry x="266" y="56" width="442.99" height="302" as="geometry"/>
                </mxCell>
            </root>
        </mxGraphModel>
    </diagram>
</mxfile>